<?xml version="1.0" encoding="utf-8"?>
<!-- Generator: Adobe Illustrator 24.1.0, SVG Export Plug-In . SVG Version: 6.00 Build 0)  -->
<svg version="1.1" id="Layer_1" xmlns="http://www.w3.org/2000/svg" xmlns:xlink="http://www.w3.org/1999/xlink" x="0px" y="0px"
	 viewBox="0 0 131.3 44.8" style="enable-background:new 0 0 131.3 44.8;" xml:space="preserve">
<style type="text/css">
	.st0{fill:none;}
	.st1{fill:#F29188;}
	.st2{fill:#CE7A76;}
	.st3{fill:#ECF0F1;}
	.st4{fill:#D9D4BA;}
	.st5{fill:#F2D6BC;}
	.st6{fill:#D6BBA5;}
	.st7{fill:#FC1559;}
	.st8{fill:#493F56;}
</style>
<desc>Created with Sketch.</desc>
<path class="st0" d="M50.7,33.5c0.1-0.1,0.1-0.2,0.2-0.3C50.8,33.3,50.7,33.4,50.7,33.5z"/>
<path class="st0" d="M51.4,32.2c-0.1,0.3-0.3,0.6-0.4,0.8C51.1,32.7,51.3,32.4,51.4,32.2z"/>
<path class="st0" d="M33.2,8.4c0-0.1,0-0.2,0-0.3C33.2,8.2,33.2,8.3,33.2,8.4c0,0.3-0.2,0.5-0.5,0.5h0C32.9,8.9,33.1,8.7,33.2,8.4z"
	/>
<path class="st0" d="M45.5,7.4L45.5,7.4L45.5,7.4c-0.2,0.2-0.5,0.3-0.7,0.1l0,0C45,7.6,45.3,7.6,45.5,7.4z"/>
<path class="st0" d="M50.9,34.1c-0.1,0-0.1,0-0.2,0C50.7,34.1,50.8,34.1,50.9,34.1z"/>
<path class="st0" d="M44.7,7.5L44.7,7.5c-0.2-0.2-0.3-0.5-0.1-0.7c0,0,0,0,0,0v0C44.5,6.9,44.5,7.3,44.7,7.5
	C44.7,7.4,44.7,7.5,44.7,7.5z"/>
<path class="st0" d="M51.1,34.1L51.1,34.1L51.1,34.1z"/>
<polygon class="st0" points="51.4,29.8 51.4,29.8 51.4,29.8 "/>
<polygon class="st0" points="30.5,25.7 30.5,25.7 30.5,27.1 30.5,27.1 30.5,26.8 "/>
<path class="st0" d="M51.2,34L51.2,34z"/>
<path class="st0" d="M30.5,31.8c0.1,0.1,0.1,0.3,0.2,0.4C30.6,32.1,30.5,32,30.5,31.8z"/>
<path class="st0" d="M30.8,32.5c0.1,0.1,0.1,0.2,0.2,0.4C30.9,32.7,30.8,32.6,30.8,32.5z"/>
<path class="st0" d="M32.6,8.9L32.6,8.9c-0.3,0-0.5-0.2-0.5-0.5c0,0,0,0,0,0l0,0C32.1,8.7,32.3,8.9,32.6,8.9
	C32.6,8.9,32.6,8.9,32.6,8.9z"/>
<path class="st0" d="M30.8,34.1L30.8,34.1L30.8,34.1z"/>
<path class="st0" d="M31.1,33.2c0.1,0.1,0.1,0.2,0.2,0.3C31.2,33.3,31.2,33.3,31.1,33.2z"/>
<path class="st1" d="M32.2,34.6c-0.3,0.1-0.7,0.2-1.1,0.2c-0.1,0-0.1,0-0.2,0c0.1,0.7,0.7,1.3,1.5,1.3h1.4
	C33.2,35.7,32.7,35.2,32.2,34.6z"/>
<path class="st1" d="M49.5,36.1c0.7,0,1.4-0.6,1.5-1.3c-0.1,0-0.2,0-0.3,0c-0.3,0-0.6-0.1-0.9-0.2c-0.5,0.5-1,1-1.5,1.4H49.5z"/>
<path class="st2" d="M48.9,35.1c0,0,2,0.5,2.3,0.3l0.3-0.8l-1.9-0.3L48.9,35.1z"/>
<path class="st3" d="M49.5,37H47c-1.8,1-3.9,1.6-6,1.6c-0.5,0-0.9,0-1.4-0.1c0,0,0,0,0,0L38.7,39c-0.4,0.2-0.6,0.6-0.6,1.1v0.5h8.1
	v-1.3c0-0.2,0.2-0.4,0.4-0.4s0.4,0.2,0.4,0.4v1.3h3.9v-1.5c0-0.8-0.2-1.6-0.5-2.4C50.2,36.9,49.8,37,49.5,37z M40.8,40.1
	c-0.2,0-0.4-0.2-0.4-0.4c0-0.2,0.2-0.4,0.4-0.4c0.2,0,0.4,0.2,0.4,0.4c0,0,0,0,0,0C41.2,39.9,41,40.1,40.8,40.1L40.8,40.1z
	 M42.4,40.1c-0.2,0-0.4-0.2-0.4-0.4s0.2-0.4,0.4-0.4s0.4,0.2,0.4,0.4l0,0C42.8,39.9,42.6,40.1,42.4,40.1
	C42.4,40.1,42.4,40.1,42.4,40.1L42.4,40.1z"/>
<path class="st3" d="M38.4,38.3C37.2,38,36.1,37.6,35,37h-2.6c-0.3,0-0.7-0.1-1-0.2c-0.3,0.8-0.5,1.6-0.5,2.4v1.5h3.5v-1.3
	c0-0.2,0.2-0.4,0.4-0.4s0.4,0.2,0.4,0.4v1.3h2v-0.5c0-0.7,0.4-1.4,1-1.7L38.4,38.3z"/>
<path class="st3" d="M51.4,29.8L51.4,29.8c0.1-0.1,0.1-0.3,0.1-0.4v-3.6h-21v3.6c0,0.6,0.5,1.1,1.1,1.1h0.7v-2.2
	c0-0.2,0.1-0.3,0.3-0.3s0.3,0.1,0.3,0.3v2.2h1.8v-2.2c0-0.2,0.1-0.3,0.3-0.3s0.3,0.1,0.3,0.3v2.2h1.8v-2.2c0-0.2,0.1-0.3,0.3-0.3
	c0.2,0,0.3,0.1,0.3,0.3v2.2h1.8v-2.2c0-0.2,0.1-0.3,0.3-0.3c0.2,0,0.3,0.1,0.3,0.3v2.2h1.8v-2.2c0-0.2,0.1-0.3,0.3-0.3
	c0.2,0,0.3,0.1,0.3,0.3v2.2h1.8v-2.2c0-0.2,0.1-0.3,0.3-0.3c0.2,0,0.3,0.1,0.3,0.3v2.2h1.8v-2.2c0-0.2,0.1-0.3,0.3-0.3
	c0.2,0,0.3,0.1,0.3,0.3v2.2h1.8v-2.2c0-0.2,0.1-0.3,0.3-0.3s0.3,0.1,0.3,0.3v2.2h0.8c0.3,0,0.5-0.1,0.7-0.3
	C51.2,30.1,51.3,29.9,51.4,29.8z"/>
<path class="st3" d="M55.7,10.6c-0.2-2.3-1.7-4.3-3.9-5.1c-1-0.4-2.2-0.4-3.2-0.1c-0.2,0-0.3,0.1-0.5,0.1l-0.2,0.1
	c-0.1,0-0.2,0.1-0.3,0.1l-0.2,0.1c-0.1,0-0.2,0.1-0.3,0.1L47,6.1l-0.2,0.2l-0.2,0.1c-0.1,0.1-0.2,0.1-0.2,0.2
	c-0.1,0.1-0.1,0.1-0.2,0.1S46,6.8,45.9,6.9L45.8,7c-0.1,0.1-0.2,0.2-0.2,0.3c0,0-0.1,0.1-0.1,0.1l0,0c-0.2,0.2-0.5,0.2-0.7,0.1l0,0
	l0,0l0,0c-0.2-0.2-0.3-0.5-0.1-0.7c0,0,0,0,0,0v0l0,0c0.1-0.1,0.2-0.2,0.3-0.4L45,6.3c0.1-0.1,0.2-0.2,0.3-0.3l0.1-0.1
	c0.1-0.1,0.2-0.1,0.2-0.2l0.2-0.1c0.1-0.1,0.2-0.1,0.2-0.2l0.2-0.1c0.1-0.1,0.2-0.1,0.3-0.2L46.7,5C46.8,5,46.9,4.9,47,4.9l0.1-0.1
	c0.1-0.1,0.3-0.1,0.5-0.2C45.2,1,40.4,0,36.7,2.3c-1.1,0.7-2,1.7-2.6,2.8c-0.5,0.9-0.8,1.9-0.9,2.9c0,0.1,0,0.2,0,0.3
	c0,0.3-0.2,0.5-0.5,0.5h-0.1c-0.3,0-0.5-0.2-0.5-0.5c0,0,0,0,0,0v0c0-0.1,0-0.2,0-0.4c0.1-0.9,0.3-1.8,0.7-2.7
	c-0.4-0.1-0.7-0.1-1.1,0c-3.2,0.2-5.6,2.9-5.4,6.1c0.1,1.9,1.2,3.7,2.9,4.7c0.8,0.5,1.3,1.3,1.3,2.3v6.4h9.9c0,0,0-0.1,0-0.1v-7.9
	c-0.1-0.3,0.1-0.6,0.4-0.6c0.3-0.1,0.6,0.1,0.6,0.4c0,0.1,0,0.1,0,0.2v8c0,0,0,0.1,0,0.1h4.3c0,0,0-0.1,0-0.1v-8
	c0-0.3,0.2-0.6,0.5-0.6c0.3,0,0.6,0.2,0.6,0.5c0,0,0,0.1,0,0.1v8c0,0,0,0.1,0,0.1h4.7v-6.4c0-0.9,0.5-1.8,1.3-2.3
	C54.7,14.9,55.9,12.8,55.7,10.6z M36.1,21.6c-0.1,0.3-0.4,0.5-0.7,0.4c-0.2,0-0.4-0.2-0.4-0.4v-5.3c0.1-0.3,0.4-0.5,0.7-0.4
	c0.2,0,0.4,0.2,0.4,0.4V21.6z M35.6,15.1c-0.3,0-0.6-0.3-0.6-0.6c0-0.3,0.3-0.6,0.6-0.6c0.3,0,0.6,0.3,0.6,0.6c0,0,0,0,0,0
	C36.2,14.8,35.9,15.1,35.6,15.1z M43.8,8.9c-0.3,0-0.6-0.3-0.6-0.6c0-0.3,0.3-0.6,0.6-0.6c0.3,0,0.6,0.3,0.6,0.6c0,0,0,0,0,0
	C44.4,8.6,44.1,8.9,43.8,8.9C43.8,8.9,43.8,8.9,43.8,8.9L43.8,8.9z M46.3,15.1c-0.3,0-0.6-0.3-0.6-0.6c0-0.3,0.3-0.6,0.6-0.6
	c0.3,0,0.6,0.3,0.6,0.6c0,0,0,0,0,0C46.9,14.8,46.6,15.1,46.3,15.1L46.3,15.1z"/>
<rect x="30" y="25.2" class="st4" width="22.4" height="1.3"/>
<path class="st4" d="M55.7,10.6c0,0-2.5,4.6-5.8,5.2v9.1l1.9,0l1-8c0,0,3.4-3.3,3.5-4.3C56.2,11.8,56,11.2,55.7,10.6z"/>
<path class="st4" d="M33.5,37.6h1.3c0,0,7.2,3.4,12.4,0h1.5c0.4,0,1.1-0.5,1.2-0.9H32.9L33.5,37.6z"/>
<path class="st5" d="M51.8,31.2c-0.1,0.3-0.2,0.6-0.4,1c-0.1,0.3-0.3,0.6-0.4,0.8c-0.1,0.1-0.1,0.2-0.2,0.3
	c-0.1,0.1-0.1,0.2-0.2,0.3c-0.1,0.2-0.2,0.4-0.4,0.6c0.1,0,0.3,0,0.4,0c0.1,0,0.1,0,0.2,0c0,0,0.1,0,0.1,0h0.1l0.2,0l0,0
	c0.9-0.2,1.5-1.1,1.5-2c0-0.5-0.2-0.9-0.5-1.3C52.1,30.9,52,31.1,51.8,31.2z"/>
<path class="st6" d="M30.8,34.1c0.1,0,0.2,0,0.3,0c0.2,0,0.4,0,0.6-0.1c-0.1-0.2-0.3-0.4-0.4-0.6c-0.1-0.1-0.1-0.2-0.2-0.3
	C31.1,33.1,31,33,31,32.8s-0.1-0.2-0.2-0.4l-0.1-0.2c-0.1-0.1-0.1-0.3-0.2-0.4c-0.1-0.2-0.2-0.4-0.2-0.6c-0.2-0.2-0.4-0.4-0.6-0.6
	c-0.8,0.8-0.8,2.1,0,2.9C30,33.8,30.4,34,30.8,34.1L30.8,34.1z"/>
<path class="st5" d="M51.1,30.2c-0.2,0.2-0.4,0.3-0.7,0.3h0.1C50.7,30.4,50.9,30.4,51.1,30.2L51.1,30.2z"/>
<path class="st5" d="M31.3,31.5c1.5,3.6,5.4,6.1,9.7,6.1s8.1-2.5,9.7-6.1H31.3z M45.5,32.8c0.5,0,0.9,0.4,0.9,0.9
	c0,0.5-0.4,0.9-0.9,0.9c-0.5,0-0.9-0.4-0.9-0.9c0,0,0,0,0,0C44.7,33.2,45.1,32.8,45.5,32.8L45.5,32.8z M37.1,32.8
	c0.5,0,0.9,0.4,0.9,0.9c0,0.5-0.4,0.9-0.9,0.9c-0.5,0-0.9-0.4-0.9-0.9c0,0,0,0,0,0C36.2,33.2,36.6,32.8,37.1,32.8
	C37.1,32.8,37.1,32.8,37.1,32.8z M42.4,35c-0.5,0.6-1.4,0.6-2,0.1c0,0-0.1-0.1-0.1-0.1c-0.1-0.2-0.1-0.4,0-0.6
	c0.2-0.1,0.4-0.1,0.6,0c0.1,0.1,0.3,0.2,0.5,0.2c0.2,0,0.3-0.1,0.5-0.2c0.1-0.2,0.4-0.2,0.6,0C42.5,34.6,42.5,34.9,42.4,35z"/>
<path class="st6" d="M51.2,32.3l0.4-0.3c0.3-0.2,0.8-0.1,1,0.2c0.2,0.3,0.4,0.6,0.3,0.9l0.2-2.5l-0.8-0.4l-1.2,1.2L51.2,32.3z"/>
<path class="st4" d="M33.1,8.8c0,0,2.2,0,2.5-1.7c0.3-1.7,2.6-6,6.2-6c0,0-7.1-0.8-8.5,6.3C33.2,7.7,33.1,8.4,33.1,8.8z"/>
<path class="st4" d="M32.6,24.7h1.3v-6.4c0-0.9-0.5-1.8-1.3-2.3c-2.8-1.6-3.7-5.1-2.1-7.9C31,7.2,31.7,6.5,32.6,6
	c0.1-0.2,0.2-0.5,0.3-0.7c-0.4-0.1-0.7-0.1-1.1,0c-3.2,0.2-5.6,2.9-5.4,6.1c0.1,1.9,1.2,3.7,2.9,4.7c0.8,0.5,1.3,1.3,1.3,2.3v6.4
	H32.6z"/>
<path class="st4" d="M32.3,30.4v-2.2c0-0.2,0.1-0.3,0.3-0.3c0.2,0,0.3,0.1,0.3,0.3v2.2h1.8v-0.1c-0.1,0-0.3-0.1-0.4-0.2
	c-0.2-0.2-0.4-0.5-0.4-0.8v-3.6h-3.4v3.6c0,0.6,0.5,1.1,1.1,1.1L32.3,30.4z"/>
<path class="st4" d="M33.9,37h-1.5c-0.3,0-0.7-0.1-1-0.2c-0.3,0.8-0.5,1.6-0.5,2.4v1.5h2.6v-1.5C33.5,38.4,33.6,37.6,33.9,37z"/>
<path class="st1" d="M46.1,34.8H45c-0.2,0-0.4,0.2-0.4,0.4c0,0.2,0.2,0.4,0.4,0.4l0,0h1.1c0.2,0,0.4-0.2,0.4-0.4
	C46.5,35,46.3,34.8,46.1,34.8z"/>
<path class="st1" d="M37.7,34.8h-1.1c-0.2,0-0.4,0.2-0.4,0.4c0,0.2,0.2,0.4,0.4,0.4l0,0h1.1c0.2,0,0.4-0.2,0.4-0.4
	C38.1,35,37.9,34.8,37.7,34.8z"/>
<path class="st6" d="M50.7,31.5H34.2c0,0-2.8,0-2.8,0c3.1,6.5,8.8,6.1,8.8,6.1c-3.3,0-4.8-2.7-5.5-4.5c-0.1-0.3,0-0.5,0.3-0.6
	c0.1,0,0.1,0,0.2,0h15.1C50.4,32.2,50.5,31.8,50.7,31.5z"/>
<path class="st2" d="M31,34.8c0.4,0,0.9-0.1,1.3-0.2c0,0,0.4,0.4,0.6,0.7c0,0-1.2,0.5-1.5,0.4C31.3,35.7,30.9,35.2,31,34.8z"/>
<path class="st3" d="M13.4,37.3l-0.4,0.1l-0.4,0.2l-0.1,0c-0.6,0.2-1.3,0.3-2,0.3c-0.3,0-0.6,0-0.9-0.1c-0.3,0-0.6-0.1-0.9-0.2
	c-0.6-0.2-1.1-0.5-1.6-0.9c-0.5-0.5-0.9-1-1.1-1.7c-0.3-0.8-0.5-1.6-0.4-2.5c0-1.8,0.4-3.1,1.3-4s2.1-1.3,3.5-1.3
	c0.6,0,1.2,0.1,1.8,0.3h0c0.1,0,0.2,0,0.2,0.1h0.1c0.1,0,0.2,0,0.2,0h0c0.1,0,0.1,0,0.2,0h0c0.1,0,0.2,0,0.2-0.1l0,0l0,0
	c0.5-0.2,0.9-0.6,1.1-1.1l0.6-1.9c-0.9-0.5-1.8-0.8-2.8-1c-0.8-0.2-1.7-0.3-2.5-0.3c-0.4,0-0.7,0-1.1,0s-0.7,0.1-1,0.1
	C7,23.6,6.4,23.7,5.8,24c-1,0.4-1.9,0.9-2.7,1.6c-0.1,0.1-0.2,0.2-0.3,0.3c-0.3,0.3-0.6,0.6-0.9,1c-0.4,0.5-0.7,1-0.9,1.5
	c-0.1,0.1-0.1,0.3-0.2,0.4c-0.2,0.4-0.3,0.9-0.4,1.3C0.1,31,0,31.8,0,32.7c0,1.4,0.2,2.7,0.7,4c0.5,1.1,1.1,2.1,2,2.9
	c0.1,0.1,0.2,0.2,0.3,0.3c0.3,0.3,0.7,0.5,1.1,0.7C4.4,40.7,4.7,40.8,5,41c0.3,0.1,0.6,0.2,0.9,0.3c0.1,0,0.3,0.1,0.4,0.1
	c0.3,0.1,0.6,0.2,0.9,0.2c0.5,0.1,1,0.2,1.5,0.2c0.3,0,0.7,0,1,0c0.8,0,1.7-0.1,2.5-0.2c0.3-0.1,0.5-0.1,0.8-0.2l0.4-0.1l0.1,0l0,0
	c0.5-0.1,1-0.3,1.5-0.6c0.1,0,0.1-0.1,0.2-0.1L14,37C13.9,37.1,13.7,37.2,13.4,37.3z"/>
<path class="st7" d="M60.7,28.5v13h5.5V29.4c0.4-0.6,1-1,1.6-1.4c0.6-0.3,1.2-0.5,1.9-0.5c0.6,0,1.2,0.2,1.6,0.7
	c0.4,0.5,0.6,1.1,0.6,1.8v11.6h5.5V29.2c0.4-0.6,1-1,1.6-1.3c0.6-0.3,1.2-0.4,1.9-0.4c0.6,0,1.2,0.2,1.6,0.7
	c0.4,0.5,0.6,1.1,0.6,1.8v11.6h5.5v-0.9c-0.1-0.1-0.3-0.2-0.4-0.4c-0.9-0.9-1.7-2-2.1-3.2c-0.5-1.3-0.8-2.8-0.8-4.2
	c0-1.5,0.2-3,0.8-4.4c0.4-1,1-1.9,1.7-2.8c-0.2-0.3-0.4-0.6-0.7-0.9c-1-1-2.5-1.5-4.4-1.5c-1.1,0-2.2,0.2-3.2,0.7
	c-1,0.5-1.9,1.2-2.7,2c-0.9-1.8-2.7-2.7-5.2-2.7c-1.1,0-2.2,0.2-3.2,0.7c-1,0.5-1.8,1.1-2.6,1.9c-0.2-0.9-0.9-1.6-1.7-1.9v1.2
	C63.9,27,62.5,28.5,60.7,28.5z"/>
<path class="st3" d="M60.7,27.6c0.4,0,0.7-0.1,1.1-0.3c0.1,0,0.1-0.1,0.2-0.1c0.7-0.4,1.1-1.2,1.1-2v-1.5l0,0v0h-6.1v-1.6l0,0
	c0-0.4,0-0.7,0.1-1.1c0.1-0.4,0.2-0.9,0.5-1.2c0.1-0.1,0.2-0.2,0.3-0.3c0.1-0.1,0.3-0.2,0.4-0.2c0.3-0.1,0.7-0.2,1-0.2
	c0.5,0,0.9,0.1,1.4,0.2c0.4,0.1,0.8,0.3,1.2,0.5l1.1-3.5c-0.2-0.1-0.3-0.2-0.5-0.3c-0.4-0.2-0.9-0.4-1.3-0.5
	c-0.2-0.1-0.3-0.1-0.5-0.2c-0.4-0.1-0.8-0.2-1.3-0.3c-0.3,0-0.5-0.1-0.8-0.1s-0.5,0-0.7,0c-0.4,0-0.9,0-1.3,0.1
	c-0.4,0.1-0.8,0.2-1.1,0.3c1.1-1.3,1.7-3.1,1.5-4.8c-0.2-2.7-2-5.1-4.6-6c-1.1-0.4-2.3-0.5-3.4-0.2c-2.5-4.2-8-5.6-12.2-3
	c-1.2,0.8-2.3,1.8-3,3L33,4.3c-3.7-0.5-7.2,2.1-7.7,5.8c-0.4,2.7,0.9,5.4,3.3,6.8c0.5,0.3,0.8,0.8,0.8,1.4v7.6
	c-0.2-0.3-0.3-0.5-0.6-0.8c-0.5-0.6-1.2-1.1-2-1.4c-0.9-0.3-1.9-0.5-2.8-0.5c-1,0-2,0.2-2.9,0.5c-0.9,0.3-1.7,0.8-2.4,1.3V15h-2.4
	c-1.7,0-3.1,1.4-3.1,3.1v4.8c0.7,0.2,1.4,0.5,2.1,0.9l0.7,0.3l-0.2,0.7l-0.6,1.9c-0.3,0.9-1,1.6-2,1.8v7.8c0.1,0,0.2-0.1,0.3-0.1
	l1-0.6l0.3,1.1l1,3.7l0.2,0.7l-0.6,0.4h3.3V28.9c0.5-0.5,1-0.8,1.6-1.1c0.6-0.3,1.2-0.4,1.8-0.4c0.8,0,1.5,0.2,2,0.8
	c0.5,0.5,0.7,1.3,0.7,2.5v10.8H30v0h21.8v0h5V27.6L60.7,27.6L60.7,27.6z M29.1,32c0-0.5,0.2-1.1,0.6-1.5c0.1,0.2,0.3,0.5,0.6,0.6
	c0.1,0.2,0.2,0.4,0.2,0.6c0.1,0.1,0.1,0.3,0.2,0.4l0.1,0.2c0.1,0.1,0.1,0.2,0.2,0.4c0.1,0.1,0.1,0.2,0.2,0.3
	c0.1,0.1,0.1,0.2,0.2,0.3c0.1,0.2,0.3,0.4,0.4,0.6c-0.2,0.1-0.4,0.1-0.6,0.1c-0.1,0-0.2,0-0.3,0h0C29.8,33.9,29.1,33,29.1,32z
	 M41,37.6c-4.3,0-8.1-2.5-9.7-6.1h19.3C49.1,35.1,45.3,37.6,41,37.6z M49.8,34.7c0.3,0.1,0.6,0.2,0.9,0.2c0.1,0,0.2,0,0.3,0
	c-0.1,0.7-0.7,1.3-1.5,1.3h-1.3C48.8,35.7,49.3,35.2,49.8,34.7z M33.8,36.1h-1.4c-0.7,0-1.4-0.5-1.5-1.3c0.1,0,0.1,0,0.2,0
	c0.4,0,0.7-0.1,1.1-0.2C32.7,35.2,33.2,35.7,33.8,36.1z M50.5,30.4h-0.9v-2.2c0-0.2-0.1-0.3-0.3-0.3c-0.2,0-0.3,0.1-0.3,0.3v2.2
	h-1.8v-2.2c0-0.2-0.1-0.3-0.3-0.3s-0.3,0.1-0.3,0.3v2.2h-1.8v-2.2c0-0.2-0.1-0.3-0.3-0.3c-0.2,0-0.3,0.1-0.3,0.3v2.2h-1.8v-2.2
	c0-0.2-0.1-0.3-0.3-0.3c-0.2,0-0.3,0.1-0.3,0.3v2.2H40v-2.2c0-0.2-0.1-0.3-0.3-0.3c-0.2,0-0.3,0.1-0.3,0.3v2.2h-1.8v-2.2
	c0-0.2-0.1-0.3-0.3-0.3c-0.2,0-0.3,0.1-0.3,0.3v2.2h-1.8v-2.2c0-0.2-0.1-0.3-0.3-0.3s-0.3,0.1-0.3,0.3v2.2h-1.8v-2.2
	c0-0.2-0.1-0.3-0.3-0.3s-0.3,0.1-0.3,0.3v2.2h-0.7c-0.6-0.1-1-0.5-1-1.1v-3.6h21v3.6c0,0.2,0,0.3-0.1,0.4
	C51.3,30.2,50.9,30.4,50.5,30.4z M37.3,40.1v0.5h-2v-1.3c0-0.2-0.2-0.4-0.4-0.4s-0.4,0.2-0.4,0.4v1.3H31v-1.5c0-0.8,0.2-1.6,0.5-2.4
	c0.3,0.2,0.7,0.2,1,0.2H35c1.1,0.6,2.2,1.1,3.4,1.3l-0.1,0.1C37.7,38.7,37.3,39.4,37.3,40.1z M50.9,40.6H47v-1.3
	c0-0.2-0.2-0.4-0.4-0.4c-0.2,0-0.4,0.2-0.4,0.4v1.3H38v-0.5c0-0.4,0.2-0.9,0.6-1.1l0.9-0.5c0,0,0,0,0,0c0.5,0.1,0.9,0.1,1.4,0.1
	c2.1,0,4.2-0.5,6-1.6h2.5c0.3,0,0.7-0.1,1-0.2c0.3,0.8,0.5,1.6,0.5,2.4L50.9,40.6z M51.2,34L51.2,34l-0.2,0H51c0,0-0.1,0-0.1,0
	c-0.1,0-0.1,0-0.2,0c-0.1,0-0.3,0-0.4,0c0.1-0.2,0.3-0.4,0.4-0.6c0.1-0.1,0.1-0.2,0.2-0.3S50.9,33,51,33c0.1-0.3,0.3-0.5,0.4-0.8
	l0,0c0.1-0.3,0.3-0.6,0.4-1c0.2-0.1,0.3-0.3,0.5-0.5c0.3,0.4,0.5,0.8,0.5,1.3C52.7,33,52.1,33.8,51.2,34L51.2,34z M52.8,16
	c-0.8,0.5-1.3,1.3-1.3,2.3v6.4h-4.7c0,0,0-0.1,0-0.1v-7.9c0-0.3-0.2-0.6-0.5-0.6c-0.3,0-0.6,0.2-0.6,0.5c0,0,0,0.1,0,0.1v8
	c0,0,0,0.1,0,0.1h-4.3c0,0,0-0.1,0-0.1v-8c0-0.3-0.2-0.6-0.5-0.6c-0.3,0-0.6,0.2-0.6,0.5c0,0,0,0.1,0,0.1v8c0,0,0,0.1,0,0.1h-9.9
	v-6.4c0-0.9-0.5-1.8-1.3-2.3c-2.8-1.6-3.7-5.1-2.1-7.9c1-1.7,2.7-2.8,4.7-2.9c0.4,0,0.7,0,1.1,0c-0.4,0.9-0.6,1.8-0.7,2.7
	c0,0.1,0,0.2,0,0.4v0c0,0.3,0.2,0.5,0.5,0.5c0.3,0,0.5-0.2,0.5-0.5c0-0.1,0-0.2,0-0.3c0.1-1,0.4-2,0.9-2.9c2.1-3.8,6.8-5.2,10.7-3.2
	c1.1,0.6,2.1,1.5,2.8,2.6c-0.2,0.1-0.3,0.1-0.5,0.2L47,4.9c-0.1,0-0.2,0.1-0.3,0.1l-0.2,0.1c-0.1,0-0.2,0.1-0.3,0.2l-0.2,0.1
	c-0.1,0.1-0.2,0.1-0.2,0.2l-0.2,0.1c-0.1,0.1-0.2,0.1-0.2,0.2L45.3,6c-0.1,0.1-0.2,0.2-0.3,0.3L45,6.4c-0.1,0.1-0.2,0.2-0.3,0.4l0,0
	c-0.2,0.2-0.1,0.6,0.1,0.7c0,0,0,0,0,0l0,0c0.2,0.2,0.5,0.1,0.7-0.1l0,0c0,0,0.1-0.1,0.1-0.1c0.1-0.1,0.1-0.2,0.2-0.3l0.1-0.1
	c0.1-0.1,0.1-0.1,0.2-0.2c0.1-0.1,0.1-0.1,0.2-0.1c0.1,0,0.2-0.1,0.2-0.2l0.2-0.1L47,6.1L47.1,6c0.1,0,0.2-0.1,0.3-0.1l0.2-0.1
	c0.1,0,0.2-0.1,0.3-0.1L48,5.6c0.2-0.1,0.3-0.1,0.5-0.1c1.1-0.3,2.2-0.2,3.2,0.1c2.2,0.7,3.8,2.7,3.9,5.1
	C55.9,12.8,54.7,14.9,52.8,16z"/>
<path class="st8" d="M51.4,36.3c0.5-0.2,0.7-1.6,0.7-1.6c0.9-0.2,1.2-1,1.4-2.3c0.1-0.8-0.2-1.7-0.8-2.2V19.8c0-1.2-0.1-2.3,0.3-2.7
	c0.6-0.4,2.2-1.8,2.2-1.8c1.1-1.3,1.7-3.1,1.5-4.8c-0.2-2.7-2-5.1-4.6-6c-1.1-0.4-2.3-0.5-3.4-0.2c-2.5-4.2-8-5.6-12.2-3
	c-1.2,0.8-2.3,1.8-3,3L33,4.3c-3.7-0.5-7.2,2.1-7.7,5.8c-0.4,2.7,0.9,5.4,3.3,6.8c0.5,0.3,0.8,0.8,0.8,1.4v11.8c0,0-0.1,0.1-0.2,0.2
	c-0.1,0.1-0.3,0.3-0.4,0.5c-0.5,0.8-0.6,1.6-0.1,2.6c0.3,0.6,0.7,1.1,1.3,1.4l0.7,1.4c0,0-0.9,1.9-0.7,5.4h21.8
	C51.9,37.9,51.4,36.3,51.4,36.3z M29.1,32c0-0.5,0.2-1.1,0.6-1.5c0.1,0.2,0.3,0.5,0.6,0.6c0.1,0.2,0.2,0.4,0.2,0.6
	c0.1,0.1,0.1,0.3,0.2,0.4l0.1,0.2c0.1,0.1,0.1,0.2,0.2,0.4s0.1,0.2,0.2,0.3c0.1,0.1,0.1,0.2,0.2,0.3c0.1,0.2,0.3,0.4,0.4,0.6
	c-0.2,0.1-0.4,0.1-0.6,0.1c-0.1,0-0.2,0-0.3,0h0C29.8,33.9,29.1,33,29.1,32L29.1,32z M41,37.6c-4.3,0-8.1-2.5-9.7-6.1h19.3
	C49.1,35.1,45.3,37.6,41,37.6L41,37.6z M49.8,34.7c0.3,0.1,0.6,0.2,0.9,0.2c0.1,0,0.2,0,0.3,0c-0.1,0.7-0.7,1.3-1.5,1.3h-1.3
	C48.8,35.7,49.3,35.2,49.8,34.7L49.8,34.7z M33.8,36.1h-1.4c-0.7,0-1.4-0.5-1.5-1.3c0.1,0,0.1,0,0.2,0c0.4,0,0.7-0.1,1.1-0.2
	C32.7,35.2,33.2,35.7,33.8,36.1L33.8,36.1z M50.5,30.4h-0.9v-2.2c0-0.2-0.1-0.3-0.3-0.3s-0.3,0.1-0.3,0.3v2.2h-1.8v-2.2
	c0-0.2-0.1-0.3-0.3-0.3c-0.2,0-0.3,0.1-0.3,0.3v2.2h-1.8v-2.2c0-0.2-0.1-0.3-0.3-0.3c-0.2,0-0.3,0.1-0.3,0.3v2.2h-1.8v-2.2
	c0-0.2-0.1-0.3-0.3-0.3c-0.2,0-0.3,0.1-0.3,0.3v2.2H40v-2.2c0-0.2-0.1-0.3-0.3-0.3c-0.2,0-0.3,0.1-0.3,0.3v2.2h-1.8v-2.2
	c0-0.2-0.1-0.3-0.3-0.3c-0.2,0-0.3,0.1-0.3,0.3v2.2h-1.8v-2.2c0-0.2-0.1-0.3-0.3-0.3s-0.3,0.1-0.3,0.3v2.2h-1.8v-2.2
	c0-0.2-0.1-0.3-0.3-0.3s-0.3,0.1-0.3,0.3v2.2h-0.8c-0.6-0.1-1-0.5-1-1.1v-3.6h21v3.6c0,0.2,0,0.3-0.1,0.4
	C51.3,30.2,50.9,30.4,50.5,30.4L50.5,30.4z M37.3,40.1v0.5h-2v-1.3c0-0.2-0.2-0.4-0.4-0.4s-0.4,0.2-0.4,0.4l0,0v1.3H31v-1.5
	c0-0.8,0.2-1.6,0.5-2.4c0.3,0.2,0.7,0.2,1,0.2H35c1.1,0.6,2.2,1.1,3.4,1.3l-0.1,0.1C37.7,38.7,37.3,39.4,37.3,40.1L37.3,40.1z
	 M50.9,40.6H47v-1.3c0-0.2-0.2-0.4-0.4-0.4c-0.2,0-0.4,0.2-0.4,0.4l0,0v1.3H38v-0.5c0-0.4,0.2-0.9,0.6-1.1l0.9-0.5c0,0,0,0,0,0
	c0.5,0.1,0.9,0.1,1.4,0.1c2.1,0,4.2-0.5,6-1.6h2.5c0.3,0,0.7-0.1,1-0.2c0.3,0.8,0.5,1.6,0.5,2.4L50.9,40.6z M51.2,34L51.2,34l-0.2,0
	H51c0,0-0.1,0-0.1,0c-0.1,0-0.1,0-0.2,0c-0.1,0-0.3,0-0.4,0c0.1-0.2,0.3-0.4,0.4-0.6c0.1-0.1,0.1-0.2,0.2-0.3S50.9,33,51,33
	c0.1-0.3,0.3-0.5,0.4-0.8l0,0c0.1-0.3,0.3-0.6,0.4-1c0.2-0.1,0.3-0.3,0.5-0.5c0.3,0.4,0.5,0.8,0.5,1.3C52.7,33,52.1,33.8,51.2,34
	L51.2,34z M52.8,16c-0.8,0.5-1.3,1.3-1.3,2.3v6.4h-4.7c0,0,0-0.1,0-0.1v-7.9c0-0.3-0.2-0.6-0.5-0.6c-0.3,0-0.6,0.2-0.6,0.5
	c0,0,0,0.1,0,0.1v8c0,0,0,0.1,0,0.1h-4.3c0,0,0-0.1,0-0.1v-8c0-0.3-0.2-0.6-0.5-0.6c-0.3,0-0.6,0.2-0.6,0.5c0,0,0,0.1,0,0.1v8
	c0,0,0,0.1,0,0.1h-9.9v-6.4c0-0.9-0.5-1.8-1.3-2.3c-2.8-1.6-3.7-5.1-2.1-7.9c1-1.7,2.7-2.8,4.7-2.9c0.4,0,0.7,0,1.1,0
	c-0.4,0.9-0.6,1.8-0.7,2.7c0,0.1,0,0.2,0,0.4v0c0,0.3,0.2,0.5,0.5,0.5c0.3,0,0.5-0.2,0.5-0.5c0-0.1,0-0.2,0-0.3c0.1-1,0.4-2,0.9-2.9
	c2.1-3.8,6.8-5.2,10.7-3.2c1.1,0.6,2.1,1.5,2.8,2.6c-0.2,0.1-0.3,0.1-0.5,0.2L47,4.9c-0.1,0-0.2,0.1-0.3,0.1l-0.2,0.1
	c-0.1,0-0.2,0.1-0.3,0.2l-0.2,0.1c-0.1,0.1-0.2,0.1-0.2,0.2l-0.2,0.1c-0.1,0.1-0.2,0.1-0.2,0.2L45.3,6c-0.1,0.1-0.2,0.2-0.3,0.3
	L45,6.4c-0.1,0.1-0.2,0.2-0.3,0.4l0,0c-0.2,0.2-0.1,0.6,0.1,0.7c0,0,0,0,0,0l0,0c0.2,0.2,0.5,0.1,0.7-0.1l0,0c0,0,0.1-0.1,0.1-0.1
	c0.1-0.1,0.1-0.2,0.2-0.3l0.1-0.1c0.1-0.1,0.1-0.1,0.2-0.2c0.1-0.1,0.1-0.1,0.2-0.1c0.1,0,0.2-0.1,0.2-0.2l0.2-0.1L47,6.1L47.1,6
	c0.1,0,0.2-0.1,0.3-0.1l0.2-0.1c0.1,0,0.2-0.1,0.3-0.1L48,5.6c0.2-0.1,0.3-0.1,0.5-0.1c1.1-0.3,2.2-0.2,3.2,0.1
	c2.2,0.7,3.8,2.7,3.9,5.1C55.9,12.8,54.7,14.9,52.8,16z"/>
<path class="st7" d="M130.6,28.5c-0.4-1.1-1.1-2.1-1.9-2.9c-0.8-0.8-1.8-1.4-2.9-1.8c-1.2-0.4-2.4-0.6-3.7-0.6
	c-1.3,0-2.5,0.2-3.7,0.6c-0.8,0.3-1.5,0.7-2.2,1.2v2.2l-0.2,0.2l-3.3,4.4c0,0.3,0,0.6,0,0.9c0,1.3,0.2,2.6,0.7,3.8h3v3.7
	c0.6,0.4,1.2,0.7,1.8,0.9c1.2,0.4,2.4,0.6,3.7,0.6c1.3,0,2.5-0.2,3.7-0.6c1.1-0.4,2.1-1.1,3-1.9c0.9-0.8,1.5-1.9,2-3
	c0.5-1.2,0.8-2.6,0.7-3.9C131.3,31.1,131.1,29.8,130.6,28.5z M125.3,35.1c-0.2,0.6-0.4,1.1-0.8,1.6c-0.3,0.4-0.7,0.7-1.2,0.9
	c-0.4,0.2-0.9,0.3-1.4,0.3c-1,0-1.8-0.4-2.6-1.3c-0.7-0.8-1.1-2.2-1.1-4c0-0.9,0.1-1.7,0.3-2.6c0.2-0.6,0.4-1.2,0.8-1.7
	c0.3-0.4,0.7-0.7,1.2-0.9c0.4-0.2,0.9-0.3,1.4-0.3c0.5,0,0.9,0.1,1.4,0.3c0.5,0.2,0.9,0.5,1.2,0.9c0.4,0.5,0.7,1.1,0.8,1.7
	c0.2,0.8,0.3,1.6,0.3,2.5C125.7,33.5,125.6,34.3,125.3,35.1z"/>
<path class="st7" d="M105.7,27.6h3.6L101.3,38v3.5h14.2v-1.8l0,0v-2.1h-8.1l5.6-7.4l0,0l2.3-3.1l0,0v-3.4h-13.5
	C101.8,25.9,103.5,27.6,105.7,27.6C105.7,27.6,105.7,27.6,105.7,27.6z"/>
<path class="st7" d="M86.7,28.8c-0.2,0.5-0.3,0.9-0.4,1.4c-0.2,0.7-0.2,1.4-0.3,2.1c0,0.2,0,0.4,0,0.6c0,0.4,0,0.7,0,1
	c0.1,1,0.3,1.9,0.7,2.8c0.3,0.8,0.8,1.6,1.4,2.2c0.2,0.2,0.4,0.4,0.6,0.6c0.2,0.2,0.4,0.4,0.6,0.5c0.7,0.5,1.5,0.9,2.3,1.2
	c0.3,0.1,0.6,0.2,0.9,0.3c0.8,0.2,1.5,0.3,2.3,0.3c0.2,0,0.3,0,0.5,0c0.5,0,1,0,1.4-0.1c0.3,0,0.6-0.1,0.9-0.2
	c0.4-0.1,0.9-0.2,1.3-0.4c0.4-0.2,0.8-0.3,1.2-0.6c0.1-0.1,0.2-0.1,0.4-0.2v-2.8l0.2-0.2l3.9-5.1c0-0.6-0.1-1.3-0.2-1.9
	c0-0.1,0-0.1,0-0.2c0-0.3-0.1-0.5-0.2-0.7c-0.1-0.2-0.1-0.4-0.2-0.6c-0.1-0.2-0.1-0.3-0.2-0.4c-0.1-0.1-0.1-0.3-0.2-0.5
	c-1.3-0.6-2.2-1.7-2.5-3.1c-0.1-0.1-0.2-0.2-0.4-0.2c-0.1-0.1-0.2-0.1-0.4-0.2c-0.4-0.2-0.9-0.5-1.4-0.6c-0.3-0.1-0.6-0.2-0.9-0.3
	s-0.6-0.1-0.9-0.2c-0.6-0.1-1.3-0.2-1.9-0.1c-1.3,0-2.5,0.2-3.7,0.6c-1.1,0.4-2.1,1.1-3,1.9c-0.3,0.3-0.6,0.6-0.9,1
	c-0.3,0.4-0.5,0.8-0.7,1.2C87,28.2,86.8,28.5,86.7,28.8z M91.9,30.1c0.1-0.5,0.3-0.9,0.6-1.3c0.1-0.1,0.2-0.2,0.2-0.3
	c0.1-0.1,0.2-0.2,0.3-0.3c0.3-0.3,0.6-0.5,0.9-0.6c0.1,0,0.2-0.1,0.3-0.1c0.2-0.1,0.4-0.1,0.7-0.1c0.1,0,0.2,0,0.3,0
	c0.2,0,0.5,0,0.7,0.1c0.2,0.1,0.5,0.1,0.7,0.2c0.2,0.1,0.4,0.2,0.5,0.3c0,0,0.1,0.1,0.1,0.1c0.2,0.2,0.4,0.3,0.5,0.5
	c0.4,0.5,0.7,1.1,0.8,1.7c0,0.2,0.1,0.3,0.1,0.5c0.1,0.6,0.2,1.3,0.2,1.9c0,0.6,0,1.3-0.2,1.9c0,0.2-0.1,0.4-0.1,0.5
	c-0.1,0.3-0.2,0.6-0.3,0.9c-0.1,0.3-0.3,0.5-0.5,0.7c-0.3,0.4-0.7,0.7-1.1,0.9c-0.2,0.1-0.4,0.2-0.7,0.2c-0.2,0-0.5,0.1-0.7,0.1
	c-0.4,0-0.7-0.1-1-0.2c-0.3-0.1-0.7-0.3-0.9-0.5c-0.1-0.1-0.2-0.2-0.3-0.3c-0.1-0.1-0.2-0.2-0.3-0.3c-0.2-0.2-0.4-0.5-0.5-0.7
	c-0.4-0.8-0.6-1.9-0.6-3.2C91.6,31.8,91.7,30.9,91.9,30.1L91.9,30.1z"/>
<path class="st3" d="M124.8,43h-64c-0.5,0-0.9,0.4-0.9,0.9c0,0.5,0.4,0.9,0.9,0.9h64c0.5,0,0.9-0.4,0.9-0.9
	C125.7,43.4,125.3,43,124.8,43z"/>
<path class="st3" d="M55.8,43H41.3c-0.5,0-0.9,0.4-0.9,0.9c0,0.5,0.4,0.9,0.9,0.9c0,0,0,0,0,0h14.5c0.5,0,0.9-0.4,0.9-0.9
	C56.7,43.4,56.3,43,55.8,43z"/>
<path class="st3" d="M36.9,43h-4.5c-0.5,0-0.9,0.4-0.9,0.9c0,0.5,0.4,0.9,0.9,0.9h4.5c0.5,0,0.9-0.4,0.9-0.9
	C37.8,43.4,37.4,43,36.9,43z"/>
<path class="st3" d="M29,43.1c-0.4,0-0.8,0.4-0.8,0.8s0.4,0.8,0.8,0.8c0.4,0,0.8-0.4,0.8-0.8l0,0C29.8,43.5,29.4,43.1,29,43.1z"/>
<path class="st8" d="M42.4,39.4c-0.2,0-0.4,0.2-0.4,0.4c0,0.2,0.2,0.4,0.4,0.4c0.2,0,0.4-0.2,0.4-0.4c0,0,0,0,0,0
	C42.8,39.5,42.6,39.4,42.4,39.4C42.4,39.4,42.4,39.4,42.4,39.4z"/>
<path class="st8" d="M40.8,39.4c-0.2,0-0.4,0.2-0.4,0.4c0,0.2,0.2,0.4,0.4,0.4c0.2,0,0.4-0.2,0.4-0.4c0,0,0,0,0,0
	C41.2,39.5,41,39.4,40.8,39.4C40.8,39.4,40.8,39.4,40.8,39.4z"/>
<path class="st8" d="M35.6,15.9c-0.3,0-0.5,0.2-0.5,0.5v5.3c0.1,0.3,0.4,0.5,0.7,0.4c0.2,0,0.4-0.2,0.4-0.4v-5.3
	C36.1,16.1,35.8,15.8,35.6,15.9z"/>
<path class="st8" d="M46.3,13.9c-0.3,0-0.6,0.3-0.6,0.6c0,0.3,0.3,0.6,0.6,0.6c0.3,0,0.6-0.3,0.6-0.6c0,0,0,0,0,0
	C46.9,14.1,46.6,13.9,46.3,13.9L46.3,13.9z"/>
<path class="st8" d="M43.8,7.7c-0.3,0-0.6,0.3-0.6,0.6c0,0.3,0.3,0.6,0.6,0.6c0.3,0,0.6-0.3,0.6-0.6c0,0,0,0,0,0
	C44.4,8,44.1,7.7,43.8,7.7L43.8,7.7z"/>
<path class="st8" d="M35.6,13.9c-0.3,0-0.6,0.3-0.6,0.6s0.3,0.6,0.6,0.6c0.3,0,0.6-0.3,0.6-0.6c0,0,0,0,0,0
	C36.2,14.1,35.9,13.9,35.6,13.9C35.6,13.9,35.6,13.9,35.6,13.9z"/>
<path class="st8" d="M41.8,34.5c-0.1,0.1-0.3,0.2-0.5,0.2c-0.2,0-0.3-0.1-0.5-0.2c-0.1-0.2-0.4-0.2-0.6,0c-0.2,0.1-0.2,0.4,0,0.6
	c0.5,0.6,1.4,0.6,2,0.1c0,0,0.1-0.1,0.1-0.1c0.1-0.2,0.1-0.4,0-0.6C42.2,34.3,41.9,34.4,41.8,34.5z"/>
<path class="st8" d="M37.1,34.5c0.5,0,0.9-0.4,0.9-0.9c0-0.5-0.4-0.9-0.9-0.9c-0.5,0-0.9,0.4-0.9,0.9c0,0,0,0,0,0
	C36.2,34.1,36.6,34.5,37.1,34.5C37.1,34.5,37.1,34.5,37.1,34.5z"/>
<path class="st8" d="M45.5,34.5c0.5,0,0.9-0.4,0.9-0.9c0-0.5-0.4-0.9-0.9-0.9c-0.5,0-0.9,0.4-0.9,0.9c0,0,0,0,0,0
	C44.7,34.1,45,34.5,45.5,34.5C45.5,34.5,45.5,34.5,45.5,34.5z"/>
<circle class="st3" cx="37.4" cy="33.8" r="0.2"/>
<circle class="st3" cx="45.3" cy="33.8" r="0.2"/>
</svg>
