<?xml version="1.0" encoding="utf-8"?>
<!-- Generator: Adobe Illustrator 24.1.0, SVG Export Plug-In . SVG Version: 6.00 Build 0)  -->
<svg version="1.1" id="Layer_1" xmlns="http://www.w3.org/2000/svg" xmlns:xlink="http://www.w3.org/1999/xlink" x="0px" y="0px"
	 viewBox="0 0 251.4 255.4" style="enable-background:new 0 0 251.4 255.4;" xml:space="preserve">
<style type="text/css">
	.st0{fill:#EE225B;}
	.st1{fill:#493F56;}
	.st2{fill:none;stroke:#493F56;stroke-width:11.2884;stroke-linecap:round;stroke-linejoin:round;}
	.st3{fill:#F39189;}
	.st4{fill:#CE7A76;}
	.st5{fill:#EAEFF1;}
	.st6{fill:#EFC41C;}
	.st7{fill:#DAD5BB;}
	.st8{fill:#F19C23;}
	.st9{fill:#F2D6BC;}
	.st10{fill:#D5BBA6;}
	.st11{fill:#40302B;}
</style>
<g>
	<path class="st0" d="M23.1,250.2c-9.9,0-17.9-8-17.9-17.9V27.1c0-9.9,8-17.9,17.9-17.9h205.2c9.9,0,17.9,8,17.9,17.9v205.2
		c0,9.9-8,17.9-17.9,17.9H23.1z"/>
	<path class="st1" d="M228.3,14.4c7,0,12.7,5.7,12.7,12.7v205.2c0,7-5.7,12.7-12.7,12.7H23.1c-7,0-12.7-5.7-12.7-12.7V27.1
		c0-7,5.7-12.7,12.7-12.7H228.3 M228.3,4H23.1C10.4,4,0,14.4,0,27.1v205.2c0,12.7,10.4,23.1,23.1,23.1h205.2
		c12.7,0,23.1-10.4,23.1-23.1V27.1C251.4,14.4,241,4,228.3,4L228.3,4z"/>
</g>
<g>
	<g>
		<path class="st2" d="M190.4,178.8c0.2-0.4,0.3-0.9,0.5-1.3C190.7,178,190.6,178.4,190.4,178.8L190.4,178.8z"/>
		<path class="st2" d="M61.3,179.5c-0.1-0.1-0.1-0.2-0.2-0.4C61.2,179.2,61.3,179.3,61.3,179.5z"/>
		<path class="st2" d="M60.5,177.4c0,0,0-0.1,0-0.1C60.5,177.3,60.5,177.3,60.5,177.4z"/>
		<path class="st2" d="M188.6,181.2c0,0.1,0,0.1,0,0.2c0.8-0.7,1.4-1.5,1.8-2.5C190,179.8,189.4,180.6,188.6,181.2z"/>
		<path class="st2" d="M60.4,160v-1.5h0c0,1.8,0,3.5,0,3.5c0,0,0,3.5,0,4.4v-4.4V160z"/>
		<path class="st2" d="M60.4,176.7c0-0.2,0-0.4,0-0.7C60.4,176.3,60.4,176.5,60.4,176.7z"/>
		<path class="st2" d="M149,39.9L149,39.9c-1.5-1-1.8-3.2-0.6-4.7c0,0-0.1,0.1-0.1,0.1C147.1,36.7,147.5,38.8,149,39.9z"/>
		<path class="st2" d="M153.4,39.3c0,0,0.1-0.1,0.1-0.1C153.4,39.3,153.4,39.3,153.4,39.3c-1.1,1.3-3,1.5-4.4,0.6l0.1,0.1
			C150.5,40.9,152.3,40.6,153.4,39.3z"/>
		<path class="st2" d="M185.8,182.8c-0.3,0.1-0.6,0.1-1,0.1C185.1,182.9,185.4,182.8,185.8,182.8z"/>
		<path class="st2" d="M76.3,47.5C76.3,47.5,76.3,47.4,76.3,47.5c-0.6,0.9-1.6,1.5-2.8,1.5h0.1C74.8,49,75.8,48.4,76.3,47.5z"/>
		<path class="st2" d="M73.5,49L73.5,49c-1.8,0-3.2-1.5-3.2-3.4c0,0,0,0,0,0C70.2,47.5,71.7,49,73.5,49z"/>
		<path class="st2" d="M62.8,181.2c-0.5-0.5-1-1-1.4-1.6c1.1,1.9,3.1,3.3,5.2,3.3c0,0,0.6,0,0.6,0c-0.2,0-0.5,0-0.7,0
			C65.1,182.7,63.8,182.1,62.8,181.2z"/>
		<path class="st2" d="M187.8,198.6c0.9-1.6,1.8-3.3,2.6-5C189.6,195.3,188.8,197,187.8,198.6z"/>
		<path class="st2" d="M80.8,218.3c-3.6-2.8-6.9-5.9-9.8-9.3c0,0,2.3,2.6,3.8,4.1c0,0-7.4,2.9-9.2,2.4c1.7,1.7,4,2.8,6.6,2.8H80.8z"
			/>
		<path class="st2" d="M69.3,209.6c0.5-0.2,1.1-0.3,1.6-0.6C70.4,209.2,69.9,209.4,69.3,209.6z"/>
		<path class="st2" d="M68.3,209.9c0.3-0.1,0.7-0.2,1-0.3C69,209.7,68.6,209.8,68.3,209.9z"/>
		<path class="st2" d="M170.7,218.3h7.8c3.3,0,6.2-1.8,7.8-4.4c-2.8-0.2-6.6-1-9-1.5C175.3,214.5,173,216.5,170.7,218.3z"/>
		<path class="st2" d="M180.2,209.4c-0.9,1-1.9,2-2.8,3c2.4,0.5,6.2,1.2,9,1.5c0.6-1.1,1.1-2.3,1.2-3.6c-0.5,0-1.1,0.1-1.6,0.1
			C183.9,210.4,182,210,180.2,209.4z"/>
		<path class="st2" d="M179.6,223.3c-1.5,2-4.5,4-6.5,4c-2.7,0-9.3,0-9.3,0c-16.3,11-35.8,10.9-51.2,8.1l-1.5,0.9
			c-2.4,1.4-3.9,3.9-3.9,6.7v3.2h33.9h16.1h0.6v-7.9c0-1.4,1.2-2.6,2.6-2.6c1.4,0,2.6,1.2,2.6,2.6v7.9h2.1h22.4v-9.4
			c0-5.2-1-10.2-2.8-14.8C183.1,222.7,181.4,223.2,179.6,223.3z M124.6,243.1c-1.3,0-2.4-1.1-2.4-2.4c0-1.3,1.1-2.4,2.4-2.4
			c1.3,0,2.4,1.1,2.4,2.4C127,242,126,243.1,124.6,243.1z M134.2,243.1c-1.3,0-2.4-1.1-2.4-2.4c0-1.3,1.1-2.4,2.4-2.4
			c1.3,0,2.4,1.1,2.4,2.4C136.6,242,135.5,243.1,134.2,243.1z"/>
		<path class="st2" d="M86.8,227.5h-6.6c-0.7,3-1.1,6.1-1.1,9.3v9.4h6v-7.9c0-1.4,1.2-2.6,2.6-2.6c1.4,0,2.6,1.2,2.6,2.6v7.9h1.9
			h10.4V243c0-3.4,1.4-6.6,3.8-8.9C94.7,231.3,86.8,227.5,86.8,227.5z"/>
		<path class="st2" d="M74.3,167.6c-0.2-0.2-0.4-0.3-0.6-0.4C73.9,167.3,74.1,167.4,74.3,167.6z"/>
		<path class="st2" d="M62.8,181.2c1,0.9,2.3,1.5,3.7,1.6C65.1,182.7,63.8,182.1,62.8,181.2c-0.5-0.5-1-1-1.4-1.6c0,0,0,0,0,0
			C61.8,180.2,62.3,180.7,62.8,181.2z"/>
		<path class="st2" d="M81.4,160v1.9v4.6v9.5c0,2.1,0.9,3.9,2.4,5.1c0.7,0.6,1.5,1,2.4,1.3v-13.7c0-1,0.8-1.8,1.8-1.8
			c1,0,1.8,0.8,1.8,1.8v14h11.4v-14c0-1,0.8-1.8,1.8-1.8c1,0,1.8,0.8,1.8,1.8v14h11.4v-14c0-1,0.8-1.8,1.8-1.8c1,0,1.8,0.8,1.8,1.8
			v14h11.4v-14c0-1,0.8-1.8,1.8-1.8c1,0,1.8,0.8,1.8,1.8v14H146v-14c0-1,0.8-1.8,1.8-1.8s1.8,0.8,1.8,1.8v14H161v-14
			c0-1,0.8-1.8,1.8-1.8c1,0,1.8,0.8,1.8,1.8v14h11.4v-14c0-1,0.8-1.8,1.8-1.8s1.8,0.8,1.8,1.8v14h4.8c1.7,0,3.2-0.6,4.4-1.6
			c0.8-0.6,1.4-1.5,1.8-2.4v0c0.2-0.4,0.3-0.9,0.5-1.3c0.1-0.5,0.2-0.9,0.2-1.4v-9.6V160v-1.5H81.4V160z"/>
		<path class="st2" d="M72.3,167.2c-0.2,0.1-0.4,0.2-0.6,0.4C71.9,167.4,72.1,167.3,72.3,167.2z"/>
		<path class="st2" d="M61.1,179.1c0.1,0.1,0.1,0.2,0.2,0.4c0,0,0,0,0,0C61.3,179.3,61.2,179.2,61.1,179.1
			C61.1,179.1,61.1,179.1,61.1,179.1z"/>
		<path class="st2" d="M43.5,86.1c1,1.1,2,2.1,3.2,3.1C45.5,88.2,44.5,87.2,43.5,86.1z"/>
		<path class="st2" d="M78.4,36.1c-0.3,1.3-0.6,2.5-0.9,3.8c0-0.2,0.1-0.3,0.1-0.5C77.9,38.3,78.2,37.2,78.4,36.1z"/>
		<path class="st2" d="M55.3,64.1c0.7,12,7.4,22.9,17.8,29c5.1,2.9,8.3,8.3,8.3,14.2v39.7H122c0-0.3-0.1-0.5-0.1-0.8V96.6
			c0-2.5,1.5-3.6,3.3-3.6s3.3,1.2,3.3,3.6v49.5c0,0.3,0,0.6-0.1,0.8h26.9c0-0.3-0.1-0.5-0.1-0.8V96.6c0-2.5,1.5-3.6,3.3-3.6
			c1.8,0,3.3,1.2,3.3,3.6v49.5c0,0.3,0,0.6-0.1,0.8h9.5h1.9h4.6h2.9v-55c20.6-3.8,36.2-32.5,36.2-32.5C215.9,45,206.3,32.7,192.6,28
			c-6.5-2.2-13.5-2.5-20.1-0.8c-1,0.3-2,0.6-3,0.9c-0.3,0.1-0.6,0.2-0.9,0.4c-0.6,0.2-1.3,0.5-1.9,0.8c-0.4,0.2-0.7,0.3-1.1,0.5
			c-0.6,0.3-1.1,0.6-1.7,0.9c-0.4,0.2-0.7,0.4-1.1,0.6c-0.5,0.3-1,0.6-1.5,1c-0.4,0.2-0.7,0.5-1,0.7c-0.5,0.4-1,0.7-1.5,1.1
			c-0.3,0.3-0.6,0.5-1,0.8c-0.5,0.4-0.9,0.8-1.4,1.3c-0.3,0.3-0.6,0.5-0.9,0.8c-0.5,0.5-1,1-1.4,1.6c-0.2,0.2-0.4,0.5-0.6,0.7
			c0,0-0.1,0.1-0.1,0.1c-1.1,1.3-2.9,1.6-4.3,0.6l-0.1-0.1l0,0v0l-0.1-0.1c-1.5-1-1.8-3.2-0.7-4.6c0,0,0.1-0.1,0.1-0.1
			c0,0,0,0,0-0.1c0.6-0.8,1.3-1.5,1.9-2.2c0.2-0.2,0.3-0.3,0.5-0.5c0.6-0.6,1.1-1.1,1.7-1.7c0.3-0.2,0.6-0.5,0.8-0.7
			c0.5-0.4,1-0.9,1.5-1.3c0.3-0.2,0.6-0.5,1-0.7c0.5-0.4,1-0.7,1.5-1.1c0.3-0.2,0.7-0.5,1-0.7c0.5-0.3,1.1-0.7,1.6-1
			c0.3-0.2,0.7-0.4,1-0.6c0.6-0.3,1.2-0.6,1.9-0.9c0.3-0.1,0.6-0.3,0.9-0.4c0.9-0.4,1.9-0.8,2.9-1.2C158,8.9,144,1.2,129.4,0.1
			c-21.5,0.8-35.7,27-37.4,37.4c-1.7,10.6-15.7,10.4-15.7,10.4c0-0.1,0.1-0.3,0.1-0.4c-0.6,0.9-1.5,1.5-2.7,1.5h-0.1h-0.1
			c-1.8,0-3.3-1.5-3.2-3.3c0,0,0,0,0,0c0,0,0-0.1,0-0.1c0-0.7,0.1-1.5,0.2-2.2c0.4-4.2,1.4-8.4,2.7-12.4
			C61.9,37.5,54.5,50,55.3,64.1z M158.6,79.8c2.1,0,3.8,1.7,3.8,3.8c0,2.1-1.7,3.8-3.8,3.8c-2.1,0-3.8-1.7-3.8-3.8
			C154.8,81.5,156.5,79.8,158.6,79.8z M142.9,41.4c2.1,0,3.8,1.7,3.8,3.8c0,2.1-1.7,3.8-3.8,3.8c-2.1,0-3.8-1.7-3.8-3.8
			C139.1,43.1,140.8,41.4,142.9,41.4z M95.2,128.1c0,1.6-1.5,3-3.3,3c-1.8,0-3.3-1.3-3.3-3v-33c0-1.6,1.5-3,3.3-3
			c1.8,0,3.3,1.3,3.3,3V128.1z M91.9,79.8c2.1,0,3.8,1.7,3.8,3.8c0,2.1-1.7,3.8-3.8,3.8c-2.1,0-3.8-1.7-3.8-3.8
			C88.2,81.5,89.9,79.8,91.9,79.8z"/>
		<path class="st2" d="M34.3,60.4c0.1-1.8,0.3-3.6,0.6-5.3C34.6,56.8,34.4,58.6,34.3,60.4z"/>
		<path class="st2" d="M34.9,55c0.2-1.2,0.5-2.3,0.9-3.4C35.5,52.7,35.2,53.9,34.9,55z"/>
		<path class="st2" d="M34.3,62.2c0-0.6,0-1.2,0-1.8C34.3,61,34.3,61.6,34.3,62.2z"/>
		<path class="st2" d="M74.1,28.7C74.1,28.7,74.1,28.7,74.1,28.7C74.1,28.7,74.1,28.7,74.1,28.7z"/>
		<path class="st2" d="M81.4,153.5h-21c0,0,0,2.6,0,5h0v1.5v1.9v4.4v0.2v9.5c0,0.2,0,0.5,0,0.7c0,0.2,0,0.3,0.1,0.5c0,0,0,0.1,0,0.1
			c0.1,0.6,0.3,1.2,0.6,1.7c0.1,0.1,0.1,0.2,0.2,0.4c0,0,0,0.1,0.1,0.1c0.4,0.6,0.8,1.2,1.4,1.6c1,0.9,2.3,1.5,3.7,1.6
			c0.2,0,0.5,0,0.7,0l0,0h4v-14c0-0.5,0.2-0.9,0.5-1.2c0.2-0.2,0.4-0.3,0.6-0.4c0.2-0.1,0.4-0.1,0.7-0.1c0.2,0,0.5,0,0.7,0.1
			c0.2,0.1,0.4,0.2,0.6,0.4c0.3,0.3,0.5,0.8,0.5,1.2v14h11.4v-0.3c-0.9-0.3-1.7-0.7-2.4-1.3c-1.5-1.2-2.4-3.1-2.4-5.1v-9.5v-4.6V160
			v-1.5H191v-5h-17.7H81.4z"/>
		<path class="st2" d="M180.8,91.9v55H191v-30.7v-9c0-5.8,3.1-11.2,8.1-14.1c12-6.8,18.9-20,17.9-33.7
			C217,59.5,201.4,88.1,180.8,91.9z"/>
		<path class="st2" d="M163.8,227.3c0,0,6.7,0,9.3,0c2,0,5-1.9,6.5-4c-0.4,0-0.7,0.1-1.1,0.1h-15.4c-10.9,6.3-23.7,9.9-37.4,9.9
			c-2.9,0-5.8-0.2-8.7-0.5c-0.1,0.1-0.1,0.1-0.2,0.2l-4.2,2.4C128,238.2,147.5,238.3,163.8,227.3z"/>
		<path class="st2" d="M197.7,193.8c-1.5-2-4.3-2.5-6.4-1.1c-0.3,0.2-0.5,0.3-0.7,0.5c-0.1,0.1-0.1,0.3-0.2,0.4
			c-0.8,1.7-1.6,3.4-2.6,5c-0.3,0.6-0.7,1.2-1,1.8c-0.3,0.5-0.6,1.1-1,1.6c-0.8,1.2-1.6,2.3-2.4,3.5c0.8,0.2,1.6,0.2,2.5,0.2
			c0.4,0,0.8,0,1.2-0.1c0.3,0,0.5-0.1,0.8-0.1c0.1,0,0.2,0,0.3-0.1c0.3-0.1,0.7-0.1,1-0.2c0,0,0,0,0.1,0c4.7-1.3,8.3-5.3,9.2-10.2
			C198.2,194.6,198,194.2,197.7,193.8z"/>
		<path class="st2" d="M67.8,205.1c-0.9-1.2-1.7-2.4-2.5-3.6c-0.3-0.5-0.7-1.1-1-1.6c-0.4-0.7-0.8-1.4-1.2-2.1
			c-0.4-0.7-0.8-1.4-1.1-2.2c-0.2-0.5-0.5-1-0.7-1.5c-0.4-0.9-0.8-1.7-1.2-2.6c-0.5-1.3-1.1-2.6-1.5-3.9c-1.4-1-2.6-2.3-3.4-3.8
			c-2.3,2.3-3.8,5.5-3.8,9c0,6.3,4.6,11.5,10.6,12.6c0.1,0,0.2,0,0.3,0c0.6,0.1,1.3,0.2,1.9,0.2C65.4,205.6,66.6,205.4,67.8,205.1z"
			/>
		<path class="st2" d="M184.2,182.9h0.5c0.3,0,0.7,0,1-0.1c1.1-0.2,2-0.7,2.8-1.4c0-0.1,0-0.1,0-0.2
			C187.4,182.2,185.9,182.9,184.2,182.9z"/>
		<path class="st2" d="M73.1,202.2c-2.6-3.8-5.2-7.9-7.5-12.8C67.5,194,70.2,197.9,73.1,202.2z"/>
		<polygon class="st2" points="185.9,189.4 185.9,189.4 185.9,189.4 		"/>
		<path class="st2" d="M89,195.4c-2.1,0-3.6,2.1-2.9,4.1c3.1,8.6,9.4,20.4,21.4,25.5c5.8,1.6,12,2.5,18.3,2.5
			c24.7,0,47-13.3,57.8-33.1c-0.4,0.7-0.7,1.1-0.7,1.1H89z M153.9,197.4c3,0,5.5,2.4,5.5,5.5c0,3-2.4,5.5-5.5,5.5
			c-3,0-5.5-2.4-5.5-5.5C148.4,199.8,150.9,197.4,153.9,197.4z M121.4,208.1c1-0.9,2.6-0.8,3.5,0.2c0.7,0.8,1.7,1.2,2.8,1.2
			c1.1,0,2.1-0.4,2.8-1.2c0.9-1,2.5-1.1,3.5-0.2c1,0.9,1.1,2.5,0.2,3.5c-1.6,1.9-4,2.9-6.6,2.9c-2.5,0-4.9-1.1-6.6-2.9
			C120.2,210.5,120.3,209,121.4,208.1z M101.4,197.4c3,0,5.5,2.4,5.5,5.5c0,3-2.4,5.5-5.5,5.5c-3,0-5.5-2.4-5.5-5.5
			C96,199.8,98.4,197.4,101.4,197.4z M95.5,212.8c0-1.4,1.1-2.5,2.5-2.5h6.9c1.4,0,2.5,1.1,2.5,2.5c0,1.4-1.1,2.5-2.5,2.5H98
			C96.6,215.3,95.5,214.2,95.5,212.8z M157.3,215.3h-6.9c-1.4,0-2.5-1.1-2.5-2.5c0-1.4,1.1-2.5,2.5-2.5h6.9c1.4,0,2.5,1.1,2.5,2.5
			C159.8,214.2,158.7,215.3,157.3,215.3z"/>
		<path class="st2" d="M197.7,193.8c0.3,0.4,0.6,0.8,0.8,1.2c0.1-0.7,0.2-1.4,0.2-2.1c0-3.1-1.1-5.9-3-8.2c-0.8,1.1-1.8,2.1-2.9,2.9
			c-0.6,1.9-1.4,3.7-2.2,5.6c0.2-0.2,0.5-0.3,0.7-0.5C193.4,191.2,196.2,191.7,197.7,193.8z"/>
		<path class="st2" d="M76.2,47.9c0,0,14,0.3,15.7-10.4c1.7-10.4,15.9-36.6,37.4-37.4C119-0.6,108.3,1.8,98.9,8
			c-6.8,4.4-12.4,10.5-16.3,17.7c-1.8,3.3-3.2,6.8-4.2,10.5c-0.3,1.1-0.5,2.2-0.7,3.3c0,0.2-0.1,0.3-0.1,0.5c-0.2,1.3-0.4,2.6-0.6,4
			c-0.1,0.7-0.1,1.3-0.2,2c0,0.6-0.2,1.1-0.5,1.5c0,0,0,0.1,0,0.1C76.3,47.6,76.3,47.8,76.2,47.9z"/>
		<path class="st2" d="M60.4,107.2v39.7h13.1H80h1.4v-39.7c0-5.9-3.2-11.3-8.3-14.2c-10.4-6.1-17.1-17-17.8-29
			c-0.8-14,6.6-26.6,17.9-33.2c0.3-0.7,0.5-1.5,0.8-2.2c0,0,0,0,0-0.1c0.3-0.7,0.6-1.5,0.9-2.2c-0.6-0.1-1.1-0.1-1.7-0.2
			c-1.7-0.2-3.4-0.2-5.2-0.1c-3.7,0.2-7.3,1-10.6,2.2c-0.6,0.2-1.1,0.4-1.6,0.7c-3.2,1.4-6.2,3.2-8.8,5.5c-0.4,0.4-0.9,0.8-1.3,1.1
			c-0.8,0.8-1.6,1.6-2.4,2.5c-0.4,0.4-0.8,0.9-1.1,1.3c-1.4,1.8-2.7,3.7-3.8,5.7c-0.5,1-1,2.1-1.5,3.1c-0.4,1.1-0.8,2.2-1.2,3.3
			c-0.3,1.1-0.6,2.3-0.9,3.4c-0.3,1.7-0.6,3.5-0.6,5.3c0,0.6,0,1.2,0,1.8c0,0.6,0,1.2,0.1,1.8c0.1,2.3,0.5,4.5,1,6.6
			c1.4,5.7,4.2,11,8.2,15.4c1,1.1,2,2.1,3.2,3.1c1.7,1.5,3.5,2.8,5.5,3.9C57.2,95.9,60.4,101.4,60.4,107.2z"/>
		<path class="st2" d="M80.1,227.5h6.6c0,0,7.9,3.8,19.5,6.6c0.7-0.7,1.6-1.4,2.5-1.9l0.9-0.5c-7.7-1.6-14.9-4.4-21.4-8.2h-7h-9.2
			c-2.2,0-4.3-0.5-6.2-1.4c-0.5,1.1-0.9,2.3-1.2,3.5c-0.5,1.8-0.9,3.6-1.2,5.5c-0.3,1.9-0.4,3.8-0.4,5.8v9.4H79v-9.4
			C79,233.5,79.4,230.4,80.1,227.5z"/>
		<path class="st2" d="M157.3,210.3h-6.9c-1.4,0-2.5,1.1-2.5,2.5c0,1.4,1.1,2.5,2.5,2.5h6.9c1.4,0,2.5-1.1,2.5-2.5
			C159.8,211.4,158.7,210.3,157.3,210.3z"/>
		<path class="st2" d="M107.4,212.8c0-1.4-1.1-2.5-2.5-2.5H98c-1.4,0-2.5,1.1-2.5,2.5c0,1.4,1.1,2.5,2.5,2.5h6.9
			C106.3,215.3,107.4,214.2,107.4,212.8z"/>
		<path class="st2" d="M83.3,189.4H65.6c2.2,5,4.8,9.1,7.5,12.8c8.4,10.8,20.5,18.9,34.3,22.8c-11.9-5.1-18.2-16.9-21.4-25.5
			c-0.7-2,0.8-4.1,2.9-4.1h93.8c0,0,0.3-0.4,0.7-1.1c0.9-1.6,1.7-3.2,2.4-4.9c0,0,0,0,0,0H83.3z"/>
		<path class="st2" d="M74.8,213.1c-1.6-1.5-3.8-4.1-3.8-4.1c-0.5,0.2-1,0.4-1.6,0.6c0,0,0,0,0,0c-0.3,0.1-0.7,0.2-1,0.3
			c-1.3,0.3-2.7,0.5-4.1,0.5c-0.3,0-0.7,0-1-0.1c0.2,2,1.1,3.8,2.4,5.2C67.3,216,74.8,213.1,74.8,213.1z"/>
		<path class="st2" d="M134.2,238.3c-1.3,0-2.4,1.1-2.4,2.4c0,1.3,1.1,2.4,2.4,2.4c1.3,0,2.4-1.1,2.4-2.4
			C136.6,239.4,135.5,238.3,134.2,238.3z"/>
		<path class="st2" d="M124.6,238.3c-1.3,0-2.4,1.1-2.4,2.4c0,1.3,1.1,2.4,2.4,2.4c1.3,0,2.4-1.1,2.4-2.4
			C127,239.4,126,238.3,124.6,238.3z"/>
		<path class="st2" d="M91.8,92.1c-1.8,0-3.3,1.3-3.3,3v33c0,1.6,1.5,3,3.3,3c1.8,0,3.3-1.3,3.3-3v-33
			C95.2,93.5,93.7,92.1,91.8,92.1z"/>
		<path class="st2" d="M158.6,87.3c2.1,0,3.8-1.7,3.8-3.8c0-2.1-1.7-3.8-3.8-3.8c-2.1,0-3.8,1.7-3.8,3.8
			C154.8,85.6,156.5,87.3,158.6,87.3z"/>
		<path class="st2" d="M142.9,49c2.1,0,3.8-1.7,3.8-3.8c0-2.1-1.7-3.8-3.8-3.8c-2.1,0-3.8,1.7-3.8,3.8C139.1,47.3,140.8,49,142.9,49
			z"/>
		<path class="st2" d="M91.9,87.3c2.1,0,3.8-1.7,3.8-3.8c0-2.1-1.7-3.8-3.8-3.8c-2.1,0-3.8,1.7-3.8,3.8
			C88.2,85.6,89.9,87.3,91.9,87.3z"/>
		<path class="st2" d="M127.7,214.5c2.5,0,4.9-1.1,6.6-2.9c0.9-1,0.8-2.6-0.2-3.5c-1-0.9-2.6-0.8-3.5,0.2c-0.7,0.8-1.7,1.2-2.8,1.2
			c-1.1,0-2.1-0.4-2.8-1.2c-0.9-1-2.5-1.1-3.5-0.2c-1,0.9-1.1,2.5-0.2,3.5C122.7,213.4,125.1,214.5,127.7,214.5z"/>
		<path class="st2" d="M101.4,208.3c3,0,5.5-2.4,5.5-5.5c0-3-2.4-5.5-5.5-5.5c-3,0-5.5,2.4-5.5,5.5C96,205.9,98.4,208.3,101.4,208.3
			z M103,202.4c0.9,0,1.6,0.7,1.6,1.6s-0.7,1.6-1.6,1.6s-1.6-0.7-1.6-1.6S102.1,202.4,103,202.4z"/>
		<path class="st2" d="M153.9,208.3c3,0,5.5-2.4,5.5-5.5c0-3-2.4-5.5-5.5-5.5c-3,0-5.5,2.4-5.5,5.5
			C148.4,205.9,150.9,208.3,153.9,208.3z M152.4,202.4c0.9,0,1.6,0.7,1.6,1.6s-0.7,1.6-1.6,1.6c-0.9,0-1.6-0.7-1.6-1.6
			S151.6,202.4,152.4,202.4z"/>
		<circle class="st2" cx="103" cy="203.9" r="1.6"/>
		<path class="st2" d="M152.4,205.5c0.9,0,1.6-0.7,1.6-1.6s-0.7-1.6-1.6-1.6c-0.9,0-1.6,0.7-1.6,1.6S151.6,205.5,152.4,205.5z"/>
	</g>
	<g>
		<path class="st3" d="M80.8,218.3c-3.6-2.8-6.9-5.9-9.8-9.3c0,0,2.3,2.6,3.8,4.1c0,0-7.4,2.9-9.2,2.4c1.7,1.7,4,2.8,6.6,2.8H80.8z"
			/>
		<path class="st3" d="M69.3,209.6c0.5-0.2,1.1-0.3,1.6-0.6C70.4,209.2,69.9,209.4,69.3,209.6z"/>
		<path class="st3" d="M68.3,209.9c0.3-0.1,0.7-0.2,1-0.3C69,209.7,68.6,209.8,68.3,209.9z"/>
		<path class="st3" d="M170.7,218.3h7.8c3.3,0,6.2-1.8,7.8-4.4c-2.8-0.2-6.6-1-9-1.5C175.3,214.5,173,216.5,170.7,218.3z"/>
		<path class="st4" d="M180.2,209.4c-0.9,1-1.9,2-2.8,3c2.4,0.5,6.2,1.2,9,1.5c0.6-1.1,1.1-2.3,1.2-3.6c-0.5,0-1.1,0.1-1.6,0.1
			C183.9,210.4,182,210,180.2,209.4z"/>
		<path class="st5" d="M179.6,223.3c-1.5,2-4.5,4-6.5,4c-2.7,0-9.3,0-9.3,0c-16.3,11-35.8,10.9-51.2,8.1l-1.5,0.9
			c-2.4,1.4-3.9,3.9-3.9,6.7v3.2h33.9h16.1h0.6v-7.9c0-1.4,1.2-2.6,2.6-2.6c1.4,0,2.6,1.2,2.6,2.6v7.9h2.1h22.4v-9.4
			c0-5.2-1-10.2-2.8-14.8C183.1,222.7,181.4,223.2,179.6,223.3z M124.6,243.1c-1.3,0-2.4-1.1-2.4-2.4c0-1.3,1.1-2.4,2.4-2.4
			c1.3,0,2.4,1.1,2.4,2.4C127,242,126,243.1,124.6,243.1z M134.2,243.1c-1.3,0-2.4-1.1-2.4-2.4c0-1.3,1.1-2.4,2.4-2.4
			c1.3,0,2.4,1.1,2.4,2.4C136.6,242,135.5,243.1,134.2,243.1z"/>
		<path class="st5" d="M86.8,227.5h-6.6c-0.7,3-1.1,6.1-1.1,9.3v9.4h6v-7.9c0-1.4,1.2-2.6,2.6-2.6c1.4,0,2.6,1.2,2.6,2.6v7.9h1.9
			h10.4V243c0-3.4,1.4-6.6,3.8-8.9C94.7,231.3,86.8,227.5,86.8,227.5z"/>
		<path class="st5" d="M74.3,167.6c-0.2-0.2-0.4-0.3-0.6-0.4C73.9,167.3,74.1,167.4,74.3,167.6z"/>
		<path class="st5" d="M62.8,181.2c1,0.9,2.3,1.5,3.7,1.6C65.1,182.7,63.8,182.1,62.8,181.2c-0.5-0.5-1-1-1.4-1.6c0,0,0,0,0,0
			C61.8,180.2,62.3,180.7,62.8,181.2z"/>
		<path class="st5" d="M81.4,160v1.9v4.6v9.5c0,2.1,0.9,3.9,2.4,5.1c0.7,0.6,1.5,1,2.4,1.3v-13.7c0-1,0.8-1.8,1.8-1.8
			c1,0,1.8,0.8,1.8,1.8v14h11.4v-14c0-1,0.8-1.8,1.8-1.8c1,0,1.8,0.8,1.8,1.8v14h11.4v-14c0-1,0.8-1.8,1.8-1.8c1,0,1.8,0.8,1.8,1.8
			v14h11.4v-14c0-1,0.8-1.8,1.8-1.8c1,0,1.8,0.8,1.8,1.8v14H146v-14c0-1,0.8-1.8,1.8-1.8s1.8,0.8,1.8,1.8v14H161v-14
			c0-1,0.8-1.8,1.8-1.8c1,0,1.8,0.8,1.8,1.8v14h11.4v-14c0-1,0.8-1.8,1.8-1.8s1.8,0.8,1.8,1.8v14h4.8c1.7,0,3.2-0.6,4.4-1.6
			c0.8-0.6,1.4-1.5,1.8-2.4v0c0.2-0.4,0.3-0.9,0.5-1.3c0.1-0.5,0.2-0.9,0.2-1.4v-9.6V160v-1.5H81.4V160z"/>
		<path class="st5" d="M72.3,167.2c-0.2,0.1-0.4,0.2-0.6,0.4C71.9,167.4,72.1,167.3,72.3,167.2z"/>
		<path class="st5" d="M61.1,179.1c0.1,0.1,0.1,0.2,0.2,0.4c0,0,0,0,0,0C61.3,179.3,61.2,179.2,61.1,179.1
			C61.1,179.1,61.1,179.1,61.1,179.1z"/>
		<path class="st5" d="M43.5,86.1c1,1.1,2,2.1,3.2,3.1C45.5,88.2,44.5,87.2,43.5,86.1z"/>
		<path class="st5" d="M78.4,36.1c-0.3,1.3-0.6,2.5-0.9,3.8c0-0.2,0.1-0.3,0.1-0.5C77.9,38.3,78.2,37.2,78.4,36.1z"/>
		<path class="st6" d="M55.3,64.1c0.7,12,7.4,22.9,17.8,29c5.1,2.9,8.3,8.3,8.3,14.2v39.7H122c0-0.3-0.1-0.5-0.1-0.8V96.6
			c0-2.5,1.5-3.6,3.3-3.6s3.3,1.2,3.3,3.6v49.5c0,0.3,0,0.6-0.1,0.8h26.9c0-0.3-0.1-0.5-0.1-0.8V96.6c0-2.5,1.5-3.6,3.3-3.6
			c1.8,0,3.3,1.2,3.3,3.6v49.5c0,0.3,0,0.6-0.1,0.8h9.5h1.9h4.6h2.9v-55c20.6-3.8,36.2-32.5,36.2-32.5C215.9,45,206.3,32.7,192.6,28
			c-6.5-2.2-13.5-2.5-20.1-0.8c-1,0.3-2,0.6-3,0.9c-0.3,0.1-0.6,0.2-0.9,0.4c-0.6,0.2-1.3,0.5-1.9,0.8c-0.4,0.2-0.7,0.3-1.1,0.5
			c-0.6,0.3-1.1,0.6-1.7,0.9c-0.4,0.2-0.7,0.4-1.1,0.6c-0.5,0.3-1,0.6-1.5,1c-0.4,0.2-0.7,0.5-1,0.7c-0.5,0.4-1,0.7-1.5,1.1
			c-0.3,0.3-0.6,0.5-1,0.8c-0.5,0.4-0.9,0.8-1.4,1.3c-0.3,0.3-0.6,0.5-0.9,0.8c-0.5,0.5-1,1-1.4,1.6c-0.2,0.2-0.4,0.5-0.6,0.7
			c0,0-0.1,0.1-0.1,0.1c-1.1,1.3-2.9,1.6-4.3,0.6l-0.1-0.1l0,0v0l-0.1-0.1c-1.5-1-1.8-3.2-0.7-4.6c0,0,0.1-0.1,0.1-0.1
			c0,0,0,0,0-0.1c0.6-0.8,1.3-1.5,1.9-2.2c0.2-0.2,0.3-0.3,0.5-0.5c0.6-0.6,1.1-1.1,1.7-1.7c0.3-0.2,0.6-0.5,0.8-0.7
			c0.5-0.4,1-0.9,1.5-1.3c0.3-0.2,0.6-0.5,1-0.7c0.5-0.4,1-0.7,1.5-1.1c0.3-0.2,0.7-0.5,1-0.7c0.5-0.3,1.1-0.7,1.6-1
			c0.3-0.2,0.7-0.4,1-0.6c0.6-0.3,1.2-0.6,1.9-0.9c0.3-0.1,0.6-0.3,0.9-0.4c0.9-0.4,1.9-0.8,2.9-1.2C158,8.9,144,1.2,129.4,0.1
			c-21.5,0.8-35.7,27-37.4,37.4c-1.7,10.6-15.7,10.4-15.7,10.4c0-0.1,0.1-0.3,0.1-0.4c-0.6,0.9-1.5,1.5-2.7,1.5h-0.1h-0.1
			c-1.8,0-3.3-1.5-3.2-3.3c0,0,0,0,0,0c0,0,0-0.1,0-0.1c0-0.7,0.1-1.5,0.2-2.2c0.4-4.2,1.4-8.4,2.7-12.4
			C61.9,37.5,54.5,50,55.3,64.1z M158.6,79.8c2.1,0,3.8,1.7,3.8,3.8c0,2.1-1.7,3.8-3.8,3.8c-2.1,0-3.8-1.7-3.8-3.8
			C154.8,81.5,156.5,79.8,158.6,79.8z M142.9,41.4c2.1,0,3.8,1.7,3.8,3.8c0,2.1-1.7,3.8-3.8,3.8c-2.1,0-3.8-1.7-3.8-3.8
			C139.1,43.1,140.8,41.4,142.9,41.4z M95.2,128.1c0,1.6-1.5,3-3.3,3c-1.8,0-3.3-1.3-3.3-3v-33c0-1.6,1.5-3,3.3-3
			c1.8,0,3.3,1.3,3.3,3V128.1z M91.9,79.8c2.1,0,3.8,1.7,3.8,3.8c0,2.1-1.7,3.8-3.8,3.8c-2.1,0-3.8-1.7-3.8-3.8
			C88.2,81.5,89.9,79.8,91.9,79.8z"/>
		<path class="st5" d="M34.3,60.4c0.1-1.8,0.3-3.6,0.6-5.3C34.6,56.8,34.4,58.6,34.3,60.4z"/>
		<path class="st5" d="M34.9,55c0.2-1.2,0.5-2.3,0.9-3.4C35.5,52.7,35.2,53.9,34.9,55z"/>
		<path class="st5" d="M34.3,62.2c0-0.6,0-1.2,0-1.8C34.3,61,34.3,61.6,34.3,62.2z"/>
		<path class="st5" d="M74.1,28.7C74.1,28.7,74.1,28.7,74.1,28.7C74.1,28.7,74.1,28.7,74.1,28.7z"/>
		<path class="st7" d="M81.4,153.5h-21c0,0,0,2.6,0,5h0v1.5v1.9v4.4v0.2v9.5c0,0.2,0,0.5,0,0.7c0,0.2,0,0.3,0.1,0.5c0,0,0,0.1,0,0.1
			c0.1,0.6,0.3,1.2,0.6,1.7c0.1,0.1,0.1,0.2,0.2,0.4c0,0,0,0.1,0.1,0.1c0.4,0.6,0.8,1.2,1.4,1.6c1,0.9,2.3,1.5,3.7,1.6
			c0.2,0,0.5,0,0.7,0l0,0h4v-14c0-0.5,0.2-0.9,0.5-1.2c0.2-0.2,0.4-0.3,0.6-0.4c0.2-0.1,0.4-0.1,0.7-0.1c0.2,0,0.5,0,0.7,0.1
			c0.2,0.1,0.4,0.2,0.6,0.4c0.3,0.3,0.5,0.8,0.5,1.2v14h11.4v-0.3c-0.9-0.3-1.7-0.7-2.4-1.3c-1.5-1.2-2.4-3.1-2.4-5.1v-9.5v-4.6V160
			v-1.5H191v-5h-17.7H81.4z"/>
		<path class="st8" d="M180.8,91.9v55H191v-30.7v-9c0-5.8,3.1-11.2,8.1-14.1c12-6.8,18.9-20,17.9-33.7
			C217,59.5,201.4,88.1,180.8,91.9z"/>
		<path class="st7" d="M163.8,227.3c0,0,6.7,0,9.3,0c2,0,5-1.9,6.5-4c-0.4,0-0.7,0.1-1.1,0.1h-15.4c-10.9,6.3-23.7,9.9-37.4,9.9
			c-2.9,0-5.8-0.2-8.7-0.5c-0.1,0.1-0.1,0.1-0.2,0.2l-4.2,2.4C128,238.2,147.5,238.3,163.8,227.3z"/>
		<path class="st9" d="M197.7,193.8c-1.5-2-4.3-2.5-6.4-1.1c-0.3,0.2-0.5,0.3-0.7,0.5c-0.1,0.1-0.1,0.3-0.2,0.4
			c-0.8,1.7-1.6,3.4-2.6,5c-0.3,0.6-0.7,1.2-1,1.8c-0.3,0.5-0.6,1.1-1,1.6c-0.8,1.2-1.6,2.3-2.4,3.5c0.8,0.2,1.6,0.2,2.5,0.2
			c0.4,0,0.8,0,1.2-0.1c0.3,0,0.5-0.1,0.8-0.1c0.1,0,0.2,0,0.3-0.1c0.3-0.1,0.7-0.1,1-0.2c0,0,0,0,0.1,0c4.7-1.3,8.3-5.3,9.2-10.2
			C198.2,194.6,198,194.2,197.7,193.8z"/>
		<path class="st10" d="M67.8,205.1c-0.9-1.2-1.7-2.4-2.5-3.6c-0.3-0.5-0.7-1.1-1-1.6c-0.4-0.7-0.8-1.4-1.2-2.1
			c-0.4-0.7-0.8-1.4-1.1-2.2c-0.2-0.5-0.5-1-0.7-1.5c-0.4-0.9-0.8-1.7-1.2-2.6c-0.5-1.3-1.1-2.6-1.5-3.9c-1.4-1-2.6-2.3-3.4-3.8
			c-2.3,2.3-3.8,5.5-3.8,9c0,6.3,4.6,11.5,10.6,12.6c0.1,0,0.2,0,0.3,0c0.6,0.1,1.3,0.2,1.9,0.2C65.4,205.6,66.6,205.4,67.8,205.1z"
			/>
		<path class="st9" d="M184.2,182.9h0.5c0.3,0,0.7,0,1-0.1c1.1-0.2,2-0.7,2.8-1.4c0-0.1,0-0.1,0-0.2
			C187.4,182.2,185.9,182.9,184.2,182.9z"/>
		<path class="st9" d="M73.1,202.2c-2.6-3.8-5.2-7.9-7.5-12.8C67.5,194,70.2,197.9,73.1,202.2z"/>
		<polygon class="st9" points="185.9,189.4 185.9,189.4 185.9,189.4 		"/>
		<path class="st9" d="M89,195.4c-2.1,0-3.6,2.1-2.9,4.1c3.1,8.6,9.4,20.4,21.4,25.5c5.8,1.6,12,2.5,18.3,2.5
			c24.7,0,47-13.3,57.8-33.1c-0.4,0.7-0.7,1.1-0.7,1.1H89z M153.9,197.4c3,0,5.5,2.4,5.5,5.5c0,3-2.4,5.5-5.5,5.5
			c-3,0-5.5-2.4-5.5-5.5C148.4,199.8,150.9,197.4,153.9,197.4z M121.4,208.1c1-0.9,2.6-0.8,3.5,0.2c0.7,0.8,1.7,1.2,2.8,1.2
			c1.1,0,2.1-0.4,2.8-1.2c0.9-1,2.5-1.1,3.5-0.2c1,0.9,1.1,2.5,0.2,3.5c-1.6,1.9-4,2.9-6.6,2.9c-2.5,0-4.9-1.1-6.6-2.9
			C120.2,210.5,120.3,209,121.4,208.1z M101.4,197.4c3,0,5.5,2.4,5.5,5.5c0,3-2.4,5.5-5.5,5.5c-3,0-5.5-2.4-5.5-5.5
			C96,199.8,98.4,197.4,101.4,197.4z M95.5,212.8c0-1.4,1.1-2.5,2.5-2.5h6.9c1.4,0,2.5,1.1,2.5,2.5c0,1.4-1.1,2.5-2.5,2.5H98
			C96.6,215.3,95.5,214.2,95.5,212.8z M157.3,215.3h-6.9c-1.4,0-2.5-1.1-2.5-2.5c0-1.4,1.1-2.5,2.5-2.5h6.9c1.4,0,2.5,1.1,2.5,2.5
			C159.8,214.2,158.7,215.3,157.3,215.3z"/>
		<path class="st10" d="M197.7,193.8c0.3,0.4,0.6,0.8,0.8,1.2c0.1-0.7,0.2-1.4,0.2-2.1c0-3.1-1.1-5.9-3-8.2
			c-0.8,1.1-1.8,2.1-2.9,2.9c-0.6,1.9-1.4,3.7-2.2,5.6c0.2-0.2,0.5-0.3,0.7-0.5C193.4,191.2,196.2,191.7,197.7,193.8z"/>
		<path class="st8" d="M76.2,47.9c0,0,14,0.3,15.7-10.4c1.7-10.4,15.9-36.6,37.4-37.4C119-0.6,108.3,1.8,98.9,8
			c-6.8,4.4-12.4,10.5-16.3,17.7c-1.8,3.3-3.2,6.8-4.2,10.5c-0.3,1.1-0.5,2.2-0.7,3.3c0,0.2-0.1,0.3-0.1,0.5c-0.2,1.3-0.4,2.6-0.6,4
			c-0.1,0.7-0.1,1.3-0.2,2c0,0.6-0.2,1.1-0.5,1.5c0,0,0,0.1,0,0.1C76.3,47.6,76.3,47.8,76.2,47.9z"/>
		<path class="st8" d="M60.4,107.2v39.7h13.1H80h1.4v-39.7c0-5.9-3.2-11.3-8.3-14.2c-10.4-6.1-17.1-17-17.8-29
			c-0.8-14,6.6-26.6,17.9-33.2c0.3-0.7,0.5-1.5,0.8-2.2c0,0,0,0,0-0.1c0.3-0.7,0.6-1.5,0.9-2.2c-0.6-0.1-1.1-0.1-1.7-0.2
			c-1.7-0.2-3.4-0.2-5.2-0.1c-3.7,0.2-7.3,1-10.6,2.2c-0.6,0.2-1.1,0.4-1.6,0.7c-3.2,1.4-6.2,3.2-8.8,5.5c-0.4,0.4-0.9,0.8-1.3,1.1
			c-0.8,0.8-1.6,1.6-2.4,2.5c-0.4,0.4-0.8,0.9-1.1,1.3c-1.4,1.8-2.7,3.7-3.8,5.7c-0.5,1-1,2.1-1.5,3.1c-0.4,1.1-0.8,2.2-1.2,3.3
			c-0.3,1.1-0.6,2.3-0.9,3.4c-0.3,1.7-0.6,3.5-0.6,5.3c0,0.6,0,1.2,0,1.8c0,0.6,0,1.2,0.1,1.8c0.1,2.3,0.5,4.5,1,6.6
			c1.4,5.7,4.2,11,8.2,15.4c1,1.1,2,2.1,3.2,3.1c1.7,1.5,3.5,2.8,5.5,3.9C57.2,95.9,60.4,101.4,60.4,107.2z"/>
		<path class="st7" d="M80.1,227.5h6.6c0,0,7.9,3.8,19.5,6.6c0.7-0.7,1.6-1.4,2.5-1.9l0.9-0.5c-7.7-1.6-14.9-4.4-21.4-8.2h-7h-9.2
			c-2.2,0-4.3-0.5-6.2-1.4c-0.5,1.1-0.9,2.3-1.2,3.5c-0.5,1.8-0.9,3.6-1.2,5.5c-0.3,1.9-0.4,3.8-0.4,5.8v9.4H79v-9.4
			C79,233.5,79.4,230.4,80.1,227.5z"/>
		<path class="st3" d="M157.3,210.3h-6.9c-1.4,0-2.5,1.1-2.5,2.5c0,1.4,1.1,2.5,2.5,2.5h6.9c1.4,0,2.5-1.1,2.5-2.5
			C159.8,211.4,158.7,210.3,157.3,210.3z"/>
		<path class="st3" d="M107.4,212.8c0-1.4-1.1-2.5-2.5-2.5H98c-1.4,0-2.5,1.1-2.5,2.5c0,1.4,1.1,2.5,2.5,2.5h6.9
			C106.3,215.3,107.4,214.2,107.4,212.8z"/>
		<path class="st10" d="M83.3,189.4H65.6c2.2,5,4.8,9.1,7.5,12.8c8.4,10.8,20.5,18.9,34.3,22.8c-11.9-5.1-18.2-16.9-21.4-25.5
			c-0.7-2,0.8-4.1,2.9-4.1h93.8c0,0,0.3-0.4,0.7-1.1c0.9-1.6,1.7-3.2,2.4-4.9c0,0,0,0,0,0H83.3z"/>
		<path class="st4" d="M74.8,213.1c-1.6-1.5-3.8-4.1-3.8-4.1c-0.5,0.2-1,0.4-1.6,0.6c0,0,0,0,0,0c-0.3,0.1-0.7,0.2-1,0.3
			c-1.3,0.3-2.7,0.5-4.1,0.5c-0.3,0-0.7,0-1-0.1c0.2,2,1.1,3.8,2.4,5.2C67.3,216,74.8,213.1,74.8,213.1z"/>
		<path class="st1" d="M134.2,238.3c-1.3,0-2.4,1.1-2.4,2.4c0,1.3,1.1,2.4,2.4,2.4c1.3,0,2.4-1.1,2.4-2.4
			C136.6,239.4,135.5,238.3,134.2,238.3z"/>
		<path class="st1" d="M124.6,238.3c-1.3,0-2.4,1.1-2.4,2.4c0,1.3,1.1,2.4,2.4,2.4c1.3,0,2.4-1.1,2.4-2.4
			C127,239.4,126,238.3,124.6,238.3z"/>
		<path class="st11" d="M91.8,92.1c-1.8,0-3.3,1.3-3.3,3v33c0,1.6,1.5,3,3.3,3c1.8,0,3.3-1.3,3.3-3v-33
			C95.2,93.5,93.7,92.1,91.8,92.1z"/>
		<path class="st1" d="M158.6,87.3c2.1,0,3.8-1.7,3.8-3.8c0-2.1-1.7-3.8-3.8-3.8c-2.1,0-3.8,1.7-3.8,3.8
			C154.8,85.6,156.5,87.3,158.6,87.3z"/>
		<path class="st1" d="M142.9,49c2.1,0,3.8-1.7,3.8-3.8c0-2.1-1.7-3.8-3.8-3.8c-2.1,0-3.8,1.7-3.8,3.8C139.1,47.3,140.8,49,142.9,49
			z"/>
		<path class="st1" d="M91.9,87.3c2.1,0,3.8-1.7,3.8-3.8c0-2.1-1.7-3.8-3.8-3.8c-2.1,0-3.8,1.7-3.8,3.8
			C88.2,85.6,89.9,87.3,91.9,87.3z"/>
		<path class="st1" d="M127.7,214.5c2.5,0,4.9-1.1,6.6-2.9c0.9-1,0.8-2.6-0.2-3.5c-1-0.9-2.6-0.8-3.5,0.2c-0.7,0.8-1.7,1.2-2.8,1.2
			c-1.1,0-2.1-0.4-2.8-1.2c-0.9-1-2.5-1.1-3.5-0.2c-1,0.9-1.1,2.5-0.2,3.5C122.7,213.4,125.1,214.5,127.7,214.5z"/>
		<path class="st1" d="M101.4,208.3c3,0,5.5-2.4,5.5-5.5c0-3-2.4-5.5-5.5-5.5c-3,0-5.5,2.4-5.5,5.5C96,205.9,98.4,208.3,101.4,208.3
			z M103,202.4c0.9,0,1.6,0.7,1.6,1.6s-0.7,1.6-1.6,1.6s-1.6-0.7-1.6-1.6S102.1,202.4,103,202.4z"/>
		<path class="st1" d="M153.9,208.3c3,0,5.5-2.4,5.5-5.5c0-3-2.4-5.5-5.5-5.5c-3,0-5.5,2.4-5.5,5.5
			C148.4,205.9,150.9,208.3,153.9,208.3z M152.4,202.4c0.9,0,1.6,0.7,1.6,1.6s-0.7,1.6-1.6,1.6c-0.9,0-1.6-0.7-1.6-1.6
			S151.6,202.4,152.4,202.4z"/>
		<circle class="st5" cx="103" cy="203.9" r="1.6"/>
		<path class="st5" d="M152.4,205.5c0.9,0,1.6-0.7,1.6-1.6s-0.7-1.6-1.6-1.6c-0.9,0-1.6,0.7-1.6,1.6S151.6,205.5,152.4,205.5z"/>
	</g>
</g>
</svg>
