<?xml version="1.0" encoding="utf-8"?>
<!-- Generator: Adobe Illustrator 24.1.0, SVG Export Plug-In . SVG Version: 6.00 Build 0)  -->
<svg version="1.1" id="Layer_1" xmlns="http://www.w3.org/2000/svg" xmlns:xlink="http://www.w3.org/1999/xlink" x="0px" y="0px"
	 viewBox="0 0 1148.7 433.9" style="enable-background:new 0 0 1148.7 433.9;" xml:space="preserve">
<style type="text/css">
	.st0{fill:none;}
	.st1{fill:#DAD5BB;}
	.st2{fill:#F39189;}
	.st3{fill:#CE7A76;}
	.st4{fill:#F2D6BC;}
	.st5{fill:#D5BBA6;}
	.st6{fill:#493F56;}
	.st7{fill:#EE225B;}
	.st8{fill:#EAEFF1;}
	.st9{fill:#EFC41C;}
	.st10{fill:#F19C23;}
	.st11{fill:#3E334C;}
</style>
<g>
	<path class="st0" d="M901.3,406.2c-2.5,0-4.1,2.6-4.7,5.3c4-0.4,6.5-1.7,6.5-3.7C903.1,406.8,902.5,406.2,901.3,406.2z"/>
	<path class="st0" d="M854,406.2c-3.4,0-5.4,5-5.4,8.7c0,2.6,0.9,4.3,2.9,4.3c3.6,0,5.3-5.2,5.3-8.8
		C856.9,407.7,856,406.2,854,406.2z"/>
	<path class="st0" d="M274.1,239.5c0-0.2,0-0.5,0.1-0.7C274.2,239,274.1,239.3,274.1,239.5L274.1,239.5z"/>
	<polygon class="st0" points="279,258.4 279,258.4 279,258.6 294.6,258.6 294.6,258.6 279,258.6 	"/>
	<path class="st0" d="M265.7,258.2c-0.5-0.1-1-0.3-1.5-0.5c1.1,0.6,2.3,1,3.6,1c0,0,0.8,0,0.8,0h5.5v0h-5.5
		C267.6,258.6,266.6,258.5,265.7,258.2z"/>
	<path class="st0" d="M1010.1,399.2h-3l-1.4,7.6h3.3c3.3,0,4.9-1.8,4.9-4.5C1013.9,400.2,1012.8,399.2,1010.1,399.2z"/>
	<path class="st0" d="M434.4,256.6c1-0.9,1.9-2.1,2.5-3.4c0.5-1.1,0.8-2.4,0.8-3.7v-13.1v-8.9v-2.1H288v2.1v2.7v6.3v13
		c0,2.8,1.3,5.3,3.3,7c1,0.8,2.1,1.4,3.3,1.8v-18.7c0-1.3,1.1-2.4,2.4-2.4c1.3,0,2.4,1.1,2.4,2.4v19.1H315v-19.1
		c0-1.3,1.1-2.4,2.4-2.4c1.3,0,2.4,1.1,2.4,2.4v19.1h15.6v-19.1c0-1.3,1.1-2.4,2.4-2.4c1.3,0,2.4,1.1,2.4,2.4v19.1h15.6v-19.1
		c0-1.3,1.1-2.4,2.4-2.4c1.3,0,2.4,1.1,2.4,2.4v19.1h15.6v-19.1c0-1.3,1.1-2.4,2.4-2.4c1.3,0,2.4,1.1,2.4,2.4v19.1h15.6v-19.1
		c0-1.3,1.1-2.4,2.4-2.4c1.3,0,2.4,1.1,2.4,2.4v19.1h15.6v-19.1c0-1.3,1.1-2.4,2.4-2.4c1.3,0,2.4,1.1,2.4,2.4v19.1h6.5
		c2.3,0,4.4-0.9,6-2.2C434.4,256.5,434.4,256.5,434.4,256.6z"/>
	<path class="st0" d="M1029,415.7c0,1.8,0.5,2.8,1.8,2.8c1.8,0,4.4-2.6,6-11.4l0.1-0.9c-0.4-0.1-1-0.2-1.8-0.2
		C1032.3,406,1029,409.6,1029,415.7z"/>
	<path class="st0" d="M956.9,406.2c-3.4,0-5.4,5-5.4,8.7c0,2.6,0.9,4.3,2.9,4.3c3.6,0,5.3-5.2,5.3-8.8
		C959.7,407.7,958.8,406.2,956.9,406.2z"/>
	<path class="st0" d="M286.3,319.6c-1,4.1-1.5,8.3-1.5,12.6V345h8.3v-10.7c0-1.9,1.6-3.5,3.5-3.5c1.9,0,3.5,1.6,3.5,3.5V345h2.7
		h14.2v-4.3c0-4.6,1.9-9,5.1-12.2c-15.8-3.8-26.6-9-26.6-9H286.3z"/>
	<path class="st0" d="M697.7,406.2c-2.5,0-4.1,2.6-4.7,5.3c4-0.4,6.5-1.7,6.5-3.7C699.5,406.8,698.9,406.2,697.7,406.2z"/>
	<path class="st0" d="M824.7,415.5c0,1.8,0.5,3,1.8,3c1.9,0,4.7-2.6,6.4-11.4l0.1-0.9c-0.4-0.1-1.1-0.2-2-0.2
		C827.9,406,824.7,409.3,824.7,415.5z"/>
	<path class="st0" d="M348.4,8.9c-0.3,0-0.6,0-0.9,0C347.7,8.9,348.1,8.9,348.4,8.9z"/>
	<path class="st0" d="M472.2,90.1c0,0,0.5,0.8,1.2,2.1c0-0.7-0.1-1.4-0.1-2.1c-1.6-19.7-14.7-36.6-33.4-42.9
		c-8.9-3-18.4-3.4-27.5-1.1c-1.4,0.3-2.7,0.8-4,1.2c-0.4,0.2-0.9,0.3-1.3,0.5c-0.9,0.3-1.8,0.7-2.6,1.1c-0.5,0.2-1,0.5-1.5,0.7
		c-0.8,0.4-1.5,0.8-2.3,1.2c-0.5,0.3-1,0.6-1.5,0.9c-0.7,0.4-1.4,0.9-2.1,1.3c-0.5,0.3-1,0.6-1.4,1c-0.7,0.5-1.3,1-2,1.5
		c-0.4,0.4-0.9,0.7-1.3,1.1c-0.7,0.6-1.3,1.2-1.9,1.7c-0.4,0.4-0.8,0.7-1.2,1.1c-0.7,0.7-1.3,1.4-1.9,2.1c-0.3,0.3-0.6,0.6-0.9,1
		c0,0.1-0.1,0.1-0.2,0.2c-1.4,1.8-4,2.1-5.9,0.8l0,0l0,0c-2.1-1.5-2.5-4.4-0.9-6.4c0,0,0-0.1,0.1-0.1c0.8-1,1.7-2,2.7-3
		c0.2-0.2,0.4-0.4,0.7-0.6c0.8-0.8,1.5-1.6,2.3-2.3c0.4-0.3,0.8-0.7,1.1-1c0.7-0.6,1.4-1.2,2.1-1.7c0.4-0.3,0.9-0.7,1.3-1
		c0.7-0.5,1.4-1,2.1-1.5c0.5-0.3,0.9-0.6,1.4-0.9c0.7-0.5,1.5-0.9,2.2-1.4c0.5-0.3,0.9-0.5,1.4-0.8c0.8-0.5,1.7-0.9,2.5-1.3
		c0.4-0.2,0.8-0.4,1.2-0.6c1.3-0.6,2.6-1.1,3.9-1.6c-11.8-18-30.8-28.4-50.7-30c-30,0.1-49.9,36.6-52.3,51.1
		c-2.1,13.1-18,14.1-20.9,14.1c-0.8,0.9-2,1.5-3.3,1.5c-2.5,0-4.5-2.1-4.5-4.6c0-0.1,0-0.1,0-0.1c0.1-1,0.1-2,0.2-3
		c0.8-7.9,2.9-15.7,6.2-23c-3.1-0.4-6.2-0.6-9.4-0.4c-0.2,0-0.3,0-0.5,0c3-0.2,6,0,9,0.4c-0.9,2-1.7,4-2.4,6
		c-15.5,8.9-25.6,26.1-24.5,45.2c0.9,16.4,10,31.3,24.3,39.6c7,3.9,11.3,11.3,11.3,19.3v54.2h-1.9h-8.9h-17v0.2h17.8h8.9h57.3
		c-0.1-0.4-0.1-0.7-0.1-1.1v-67.7c0-3.3,2-5,4.6-5c2.5,0,4.6,1.6,4.6,5v67.7c0,0.4,0,0.8-0.1,1.1H389c-0.1-0.4-0.1-0.7-0.1-1.1
		v-67.7c0-3.3,2-5,4.6-5c2.5,0,4.6,1.6,4.6,5v67.7c0,0.4,0,0.8-0.1,1.1h13h2.6h6.3h2.9v-75.2C450.9,129.2,472.2,90.1,472.2,90.1z
		 M306.8,183.9c0,2.2-2,4-4.6,4c-2.5,0-4.6-1.8-4.6-4v-45.1c0-2.2,2-4,4.6-4c2.5,0,4.6,1.8,4.6,4V183.9z M302.4,128.2
		c-2.8,0-5.1-2.3-5.1-5.1s2.3-5.1,5.1-5.1s5.1,2.3,5.1,5.1S305.2,128.2,302.4,128.2z M372,75.8c-2.8,0-5.1-2.3-5.1-5.1
		s2.3-5.1,5.1-5.1s5.1,2.3,5.1,5.1S374.8,75.8,372,75.8z M393.4,128.2c-2.8,0-5.1-2.3-5.1-5.1s2.3-5.1,5.1-5.1
		c2.8,0,5.1,2.3,5.1,5.1S396.2,128.2,393.4,128.2z"/>
	<path class="st0" d="M774.3,406.2c-2.5,0-4.1,2.6-4.7,5.3c4-0.4,6.5-1.7,6.5-3.7C776.1,406.8,775.5,406.2,774.3,406.2z"/>
	<path class="st0" d="M258.9,270.5c0.5,1.2,1.1,2.4,1.6,3.6C260,272.9,259.4,271.7,258.9,270.5z"/>
	<path class="st0" d="M433.4,280.1c1.3-2.2,2.4-4.5,3.5-6.8C435.8,275.6,434.6,277.9,433.4,280.1z"/>
	<path class="st0" d="M422.1,314c-2,2.8-6.1,5.4-8.8,5.4c-3.6,0-12.7,0-12.7,0c-22.2,15-48.9,14.8-69.9,11l-2,1.2
		c-3.3,1.9-5.3,5.4-5.3,9.1v4.3h46.3h22h0.8v-10.7c0-1.9,1.6-3.5,3.5-3.5c1.9,0,3.5,1.6,3.5,3.5V345h2.9H433v-12.8
		c0-7.1-1.4-13.9-3.9-20.1C426.9,313.1,424.6,313.8,422.1,314z M347.1,340.9c-1.8,0-3.3-1.5-3.3-3.3c0-1.8,1.5-3.3,3.3-3.3
		c1.8,0,3.3,1.5,3.3,3.3C350.3,339.5,348.9,340.9,347.1,340.9z M360.1,340.9c-1.8,0-3.3-1.5-3.3-3.3c0-1.8,1.5-3.3,3.3-3.3
		c1.8,0,3.3,1.5,3.3,3.3C363.4,339.5,361.9,340.9,360.1,340.9z"/>
	<path class="st0" d="M788.2,311.4c0.8,0.9,1.6,1.7,2.4,2.5c0.8,0.8,1.7,1.5,2.5,2.2c2.5,2,5.2,3.5,8,4.5c2.8,1,5.7,1.5,8.8,1.5
		c2,0,4-0.2,5.9-0.6c1.9-0.4,3.8-1,5.6-1.8c3.7-1.6,6.9-4.1,9.8-7.6c1.4-1.7,2.7-3.7,3.8-6c1.1-2.3,2.1-4.8,3-7.7
		c0.4-1.4,0.8-2.9,1.1-4.5c0.9-4.7,1.4-10.2,1.4-16.3c0-6.1-0.5-11.6-1.4-16.4c-0.3-1.6-0.7-3.1-1.1-4.6c-1.7-5.8-4-10.5-6.9-14.2
		c-1.4-1.7-2.9-3.2-4.5-4.5c-0.3-0.3-0.7-0.5-1-0.8c-1.5-1.1-3-2-4.6-2.7c-1.9-0.8-3.8-1.5-5.8-1.9c-1.9-0.4-3.9-0.6-5.9-0.6
		c-1,0-2,0-3,0.1c-2,0.2-3.9,0.6-5.8,1.1c-0.9,0.3-1.9,0.6-2.8,1c-2.8,1.1-5.3,2.8-7.6,5.1c-0.8,0.8-1.5,1.6-2.2,2.5
		c-0.7,0.9-1.4,1.9-2,2.9c-1.9,3.1-3.5,6.8-4.8,11.1c-1.7,5.8-2.5,13.1-2.5,21.9c0,11.5,1.8,20.7,5.3,27.6
		C785.2,307.6,786.6,309.6,788.2,311.4z"/>
	<path class="st0" d="M364.5,399.5h-3l-3.3,18.4h3.1c6.9,0,10.4-4.8,10.4-11.9C371.7,401.7,369.5,399.5,364.5,399.5z"/>
	<path class="st0" d="M651.2,415.7c0,1.8,0.5,2.8,1.8,2.8c1.8,0,4.4-2.6,6-11.4l0.1-0.9c-0.4-0.1-1-0.2-1.8-0.2
		C654.5,406,651.2,409.6,651.2,415.7z"/>
	<path class="st0" d="M1075.5,406.2c-2.5,0-4.1,2.6-4.7,5.3c4-0.4,6.5-1.7,6.5-3.7C1077.3,406.8,1076.7,406.2,1075.5,406.2z"/>
	<path class="st0" d="M394.5,407.8c0-1.1-0.6-1.7-1.8-1.7c-2.5,0-4.1,2.6-4.7,5.3C392.1,411.2,394.5,409.8,394.5,407.8z"/>
	<path class="st0" d="M438.8,415.5c0,1.8,0.5,3,1.8,3c2,0,4.6-2.4,6.4-11.4l0.1-0.9c-0.4-0.1-1.1-0.2-2-0.2
		C442,406,438.8,409.3,438.8,415.5z"/>
	<path class="st1" d="M473.4,92.2c-0.7-1.3-1.2-2.1-1.2-2.1s-21.3,39.1-49.4,44.3v75.2h14.9v-42v-12.3c0-7.9,4.2-15.3,11.1-19.2
		C464.5,127.2,473.9,110.2,473.4,92.2z"/>
	<path class="st1" d="M301.5,60.2c2.3-14.4,22.2-51,52.3-51.1c-0.6,0-1.2-0.1-1.8-0.1c-0.5,0-1,0-1.6-0.1c-0.7,0-1.4,0-2.1,0
		c-0.3,0-0.6,0-0.9,0c-0.7,0-1.3,0-2,0.1c-11.6,0.5-23.1,4-33.5,10.8c-9.3,6.1-16.9,14.4-22.2,24.1c-4.3,7.7-6.9,16.2-7.8,25
		c-0.1,0.9-0.2,1.8-0.2,2.7c-0.1,1-0.5,2-1.2,2.7C283.5,74.3,299.4,73.4,301.5,60.2z"/>
	<path class="st1" d="M285.3,209.4h1.9v-54.2c0-8-4.3-15.4-11.3-19.3c-14.2-8.3-23.3-23.1-24.3-39.6c-1.1-19.1,9-36.3,24.5-45.2
		c0.7-2,1.5-4.1,2.4-6c-3-0.4-6-0.6-9-0.4c-26.8,1.8-47.2,24.8-45.7,51.7c0.9,16.4,10.1,31.3,24.3,39.6c7,3.9,11.3,11.3,11.3,19.4
		v54.1h17H285.3z"/>
	<path class="st2" d="M271.5,295.2c0.7-0.2,1.5-0.5,2.2-0.8C273,294.7,272.3,294.9,271.5,295.2z"/>
	<path class="st2" d="M273.7,294.4c0,0,3.1,3.6,5.2,5.6c0,0-10,3.9-12.5,3.2c2.3,2.4,5.4,3.8,9,3.8h11.7
		C282.2,303.3,277.7,299,273.7,294.4z"/>
	<path class="st2" d="M420.6,307.1c4.6,0,8.5-2.4,10.7-6.1c-3.8-0.3-8.9-1.3-12.2-2c-2.9,2.9-5.9,5.6-9.1,8.1H420.6z"/>
	<path class="st3" d="M432.9,296.1c-0.7,0.1-1.5,0.1-2.2,0.1c-2.7,0-5.4-0.5-7.8-1.3c-1.2,1.4-2.5,2.8-3.9,4.1
		c3.3,0.7,8.5,1.7,12.2,2C432.2,299.5,432.7,297.9,432.9,296.1z"/>
	<path class="st1" d="M288,249.4v-13v-6.3v-2.7v-2.1h149.7v-6.8h-24.2H288h-28.6c0,0,0,11.6,0,11.6c0,0,0,6.3,0,6.3v13
		c0,3.4,2,6.7,4.9,8.3c0.5,0.2,1,0.4,1.5,0.5c0.9,0.3,1.9,0.5,2.9,0.5h5.5v-19.1v0c0-0.2,0-0.5,0.1-0.7c0.1-0.2,0.2-0.4,0.3-0.6
		c0.2-0.3,0.4-0.5,0.7-0.7c0.4-0.3,0.8-0.4,1.3-0.4h0c0.1,0,0.1,0,0.2,0c0.3,0,0.5,0.1,0.8,0.2c0.4,0.2,0.8,0.5,1.1,0.9
		c0.3,0.4,0.4,0.8,0.4,1.3v18.9h0v0.2h15.6v-0.4c-1.2-0.4-2.4-1-3.3-1.8C289.3,254.7,288,252.2,288,249.4z"/>
	<path class="st1" d="M400.5,319.4c0,0,9.1,0,12.7,0c2.8,0,6.8-2.6,8.8-5.4c-0.5,0-1,0.1-1.5,0.1h-21.1c-14.8,8.6-32.4,13.5-51,13.5
		c-4,0-7.9-0.2-11.8-0.7c-0.1,0.1-0.2,0.2-0.3,0.2l-5.7,3.3C351.6,334.2,378.3,334.3,400.5,319.4z"/>
	<path class="st4" d="M438.1,272c-0.3,0.2-0.7,0.5-1,0.7c-0.1,0.2-0.2,0.4-0.3,0.6c-1.1,2.3-2.2,4.6-3.5,6.8
		c-0.5,0.8-0.9,1.6-1.4,2.4c-0.4,0.7-0.9,1.4-1.3,2.1c-1,1.6-2.1,3.2-3.3,4.7c1.1,0.2,2.2,0.3,3.4,0.3c0.6,0,1.1,0,1.7-0.1
		c0.4,0,0.7-0.1,1.1-0.2c0.2,0,0.3,0,0.5-0.1c0.5-0.1,0.9-0.2,1.4-0.3c0,0,0.1,0,0.1,0c6.4-1.8,11.4-7.2,12.5-13.9
		c-0.3-0.6-0.7-1.1-1.1-1.7C444.8,270.8,440.9,270.1,438.1,272z"/>
	<path class="st5" d="M269.4,289c-1.2-1.6-2.3-3.3-3.4-4.9c-0.5-0.7-0.9-1.5-1.3-2.2c-0.6-0.9-1.1-1.9-1.6-2.8c-0.5-1-1.1-2-1.6-3
		c-0.3-0.7-0.6-1.4-1-2c-0.6-1.2-1.1-2.4-1.6-3.6c-0.7-1.8-1.4-3.5-2.1-5.4c-2-1.3-3.6-3.1-4.7-5.2c-3.2,3.2-5.1,7.5-5.1,12.3
		c0,8.6,6.3,15.7,14.5,17.2c0.1,0,0.2,0,0.3,0.1c0.9,0.1,1.7,0.2,2.6,0.2C266.2,289.8,267.8,289.5,269.4,289z"/>
	<path class="st4" d="M434.4,256.4c-1.6,1.4-3.7,2.2-6,2.2h0.7c0.4,0,0.9,0,1.3-0.1c0,0,0,0,0,0c1.5-0.3,2.8-0.9,3.9-1.9
		C434.4,256.5,434.4,256.5,434.4,256.4z"/>
	<path class="st4" d="M426.4,275.8H298.3c-2.9,0-5,2.9-4,5.6c4.3,11.8,12.9,27.8,29.2,34.8c8,2.2,16.4,3.4,24.9,3.4
		c33.7,0,64.2-18.2,78.9-45.3C426.8,275.2,426.4,275.8,426.4,275.8z M315.4,278.5c4.1,0,7.5,3.3,7.5,7.5c0,4.1-3.3,7.5-7.5,7.5
		c-4.1,0-7.5-3.3-7.5-7.5C307.9,281.8,311.3,278.5,315.4,278.5z M320.2,302.9h-9.5c-1.9,0-3.4-1.5-3.4-3.4c0-1.9,1.5-3.4,3.4-3.4
		h9.5c1.9,0,3.4,1.5,3.4,3.4C323.5,301.4,322,302.9,320.2,302.9z M387,278.5c4.1,0,7.5,3.3,7.5,7.5c0,4.1-3.3,7.5-7.5,7.5
		c-4.1,0-7.5-3.3-7.5-7.5C379.5,281.8,382.9,278.5,387,278.5z M360.1,297.8c-2.2,2.5-5.5,4-8.9,4c-3.5,0-6.7-1.5-8.9-4
		c-1.2-1.4-1.1-3.5,0.3-4.8c1.4-1.2,3.5-1.1,4.8,0.3c0.9,1.1,2.3,1.7,3.8,1.7c1.5,0,2.9-0.6,3.8-1.7c1.2-1.4,3.4-1.6,4.8-0.3
		C361.2,294.3,361.4,296.4,360.1,297.8z M391.7,302.9h-9.5c-1.9,0-3.4-1.5-3.4-3.4c0-1.9,1.5-3.4,3.4-3.4h9.5c1.9,0,3.4,1.5,3.4,3.4
		C395.1,301.4,393.6,302.9,391.7,302.9z"/>
	<path class="st4" d="M276.7,285.1c-3.7-5.1-7.2-10.9-10.3-17.5C269,273.8,272.5,279.7,276.7,285.1z"/>
	<path class="st5" d="M440.2,265.1c-0.9,2.6-1.9,5.1-3,7.6c0.3-0.2,0.6-0.4,1-0.7c2.8-1.9,6.7-1.3,8.7,1.5c0.4,0.5,0.8,1.1,1.1,1.7
		c0.2-0.9,0.2-1.9,0.2-2.9c0-4.2-1.5-8.1-4-11.1C443.1,262.7,441.7,264.1,440.2,265.1z"/>
	<path class="st1" d="M326.7,325.2c-10.5-2.2-20.3-6-29.2-11.2h-9.6h-12.5h0c-1.9,0-3.7-0.3-5.5-0.8c-1-0.3-2-0.7-3-1.2
		c-0.9,2.3-1.7,4.8-2.3,7.2c-0.6,2.5-1.1,5-1.3,7.6c-0.2,1.7-0.3,3.5-0.3,5.3V345h21.7v-12.8c0-4.4,0.5-8.6,1.5-12.6h9.1
		c0,0,10.8,5.2,26.6,9c1-1,2.2-1.9,3.4-2.6L326.7,325.2z"/>
	<path class="st2" d="M391.7,296.1h-9.5c-1.9,0-3.4,1.5-3.4,3.4c0,1.9,1.5,3.4,3.4,3.4h9.5c1.9,0,3.4-1.5,3.4-3.4
		C395.1,297.7,393.6,296.1,391.7,296.1z"/>
	<path class="st2" d="M320.2,296.1h-9.5c-1.9,0-3.4,1.5-3.4,3.4c0,1.9,1.5,3.4,3.4,3.4h9.5c1.9,0,3.4-1.5,3.4-3.4
		C323.5,297.7,322,296.1,320.2,296.1z"/>
	<path class="st5" d="M294.4,281.4c-1-2.7,1-5.6,4-5.6h128.1c0,0,0.4-0.5,1-1.5c1.2-2.2,2.3-4.4,3.3-6.7c0,0,0,0,0,0H266.4
		c3.1,6.6,6.6,12.4,10.3,17.5c11.4,14.8,28,25.8,46.9,31.1C307.3,309.2,298.7,293.1,294.4,281.4z"/>
	<path class="st3" d="M278.9,300c-2.1-2-5.2-5.6-5.2-5.6c-0.7,0.3-1.4,0.6-2.2,0.8c0,0-0.1,0-0.1,0c-0.1,0-0.3,0.1-0.4,0.1
		c-2.1,0.6-4.3,0.9-6.5,0.9c-0.5,0-0.9,0-1.4-0.1c0.3,2.7,1.5,5.2,3.3,7.1C268.9,303.8,278.9,300,278.9,300z"/>
	<path class="st6" d="M114.2,316.9c-1,0.4-2,0.8-3.2,1.3c-1.1,0.4-2.3,0.9-3.6,1.3c-0.3,0.1-0.6,0.2-0.9,0.3
		c-4.9,1.6-10.6,2.4-16.9,2.4c-2.5,0-5-0.2-7.6-0.6c-2.5-0.4-5-1-7.6-1.8c-5-1.6-9.6-4.2-13.6-7.9c-4-3.7-7.3-8.4-9.8-14.2
		c-2.5-5.8-3.8-12.9-3.8-21.3c0-14.9,3.8-26.1,11.4-33.6c7.6-7.5,17.4-11.2,29.6-11.2c5.3,0,10.5,0.8,15.6,2.5c0.1,0,0.1,0,0.2,0.1
		c0.7,0.2,1.4,0.4,2.1,0.5c0.1,0,0.3,0.1,0.4,0.1c0.7,0.1,1.4,0.2,2.1,0.2c0.1,0,0.2,0,0.3,0c0.6,0,1.2-0.1,1.9-0.1
		c0.1,0,0.2,0,0.3,0c0.7-0.1,1.3-0.3,1.9-0.5c0,0,0.1,0,0.1,0v0c4.4-1.4,8.1-4.8,9.5-9.5l5-16.1c-8-4.2-15.8-7-23.5-8.5
		c-7.7-1.5-14.8-2.2-21.3-2.2c-3.1,0-6.1,0.1-9.1,0.4c-3,0.2-5.8,0.6-8.7,1.1c-5.6,1-11,2.4-16,4.4c-8.8,3.4-16.6,8-23.4,13.8
		c-1,0.8-1.9,1.7-2.8,2.6c-2.8,2.6-5.3,5.5-7.6,8.5c-3,4-5.7,8.4-7.9,13.1c-0.6,1.2-1.1,2.4-1.6,3.6c-1.5,3.7-2.7,7.5-3.7,11.4
		C0.8,263.3,0,270.3,0,277.7c0,12.8,2.1,24.1,6.3,33.9c4.2,9.8,9.9,18,17.2,24.6c0.9,0.8,1.8,1.6,2.8,2.4c2.8,2.3,5.9,4.4,9.1,6.3
		c2.2,1.2,4.4,2.4,6.7,3.4c2.3,1,4.7,2,7.2,2.8c1.2,0.4,2.5,0.8,3.8,1.2c2.6,0.7,5.2,1.4,7.8,1.9c4,0.8,8.1,1.3,12.4,1.7
		c2.8,0.2,5.7,0.3,8.7,0.3c7.6,0,14.7-0.7,21.3-2c2.2-0.4,4.4-0.9,6.5-1.5c1.1-0.3,2.1-0.6,3-0.9c0.2,0,0.3-0.1,0.5-0.1v0
		c5.6-1.7,10-3.3,13-4.8c0.5-0.3,1-0.5,1.5-0.8l-8.5-31.5C117.8,315.3,116.2,316.1,114.2,316.9z"/>
	<path class="st7" d="M515.6,242.4v110.3h46.7V249.3c3.6-4.8,8.1-8.7,13.6-11.7c5.5-2.9,10.7-4.4,15.8-4.4c5.7,0,10.2,1.9,13.6,5.7
		c3.4,3.8,5,8.8,5,15.1v98.7h46.7V248c3.6-4.8,8.1-8.5,13.6-11c5.5-2.5,10.7-3.8,15.8-3.8c5.7,0,10.2,1.9,13.6,5.7
		c3.4,3.8,5,8.8,5,15.1v98.7h46.7v-8c-1.2-1-2.4-2-3.5-3.1c-7.7-7.2-13.8-16.2-18.2-26.8c-4.4-10.5-6.6-22.4-6.6-35.6
		c0-13.8,2.3-26.3,6.7-37.3c3.6-8.9,8.4-16.8,14.3-23.5c-1.7-2.8-3.6-5.2-5.9-7.5c-8.8-8.7-21.3-13.1-37.5-13.1
		c-9.7,0-18.8,2.1-27.3,6.3c-8.5,4.2-16.1,9.8-22.9,16.7c-8-15.3-22.8-23-44.5-23c-9.9,0-18.8,2-26.8,6c-8,4-15.3,9.5-22.1,16.4
		c-2.1-7.5-7.4-13.4-14.2-16.5v10.6C543,229.6,530.8,242.1,515.6,242.4z"/>
	<path class="st6" d="M515.6,234.7c3.3-0.1,6.4-1,9.1-2.4c0.6-0.3,1.1-0.7,1.7-1c5.4-3.7,9-9.9,9-16.9v-12.8c0,0,0,0,0,0v-0.2h-3.2
		h-16.6h-32.4v-13.6v0c0-3.5,0.2-6.6,0.7-9.3c0.8-4.5,2.2-7.9,4.2-10.3c0.8-0.9,1.7-1.8,2.8-2.5c1-0.7,2.2-1.3,3.4-1.8
		c2.5-0.9,5.4-1.4,8.8-1.4c4.2,0,8,0.6,11.5,1.7c3.5,1.2,6.9,2.6,10.2,4.3l9.1-30c-1.4-0.8-2.9-1.6-4.4-2.4
		c-3.4-1.7-7.2-3.2-11.3-4.5c-1.4-0.4-2.8-0.9-4.3-1.3c-3.6-1-7.2-1.7-10.9-2.2c-2.3-0.3-4.5-0.6-6.8-0.7c-2-0.1-4-0.2-6.1-0.2
		c-3.9,0-7.7,0.3-11.3,0.8c-3.4,0.5-6.6,1.3-9.6,2.3c9.2-11.3,14.1-25.8,12.9-40.9c-1.9-23.3-17.4-43.3-39.5-50.8
		c-9.4-3.2-19.4-3.9-29.2-2c-6.4-10.6-15.3-19.5-25.9-25.8c-35.9-21.6-82.5-10-104,25.9c-1-0.2-1.9-0.3-2.9-0.5
		c-31.6-4.5-60.9,17.4-65.4,49c-3.4,23.4,7.8,46.5,28.2,58.4c4.2,2.3,6.9,6.8,6.9,11.6v64.5c-1.4-2.3-3-4.4-4.7-6.4
		c-4.4-4.9-10-8.8-16.7-11.5c-6.7-2.7-14.7-4.1-24-4.1c-8.8,0-17.1,1.5-24.9,4.4c-7.8,2.9-14.5,6.6-20.2,11v-86.1h-20.5
		c-14.4,0-26.1,11.7-26.1,26.1v41c6,1.8,12,4.2,18,7.4l5.6,3l-1.9,6.1l-5,16.1c-2.4,7.9-8.9,13.6-16.9,15.2v66.7
		c0.9-0.4,1.6-0.8,2.3-1.1l8.5-4.6l2.5,9.4l8.5,31.5l1.5,5.7l-5,3h28.3V245.8c3.8-3.8,8.3-6.8,13.6-9.1c5.3-2.3,10.4-3.5,15.5-3.5
		c7.4,0,13.1,2.1,17.2,6.3c4.1,4.2,6.1,11.4,6.1,21.4v91.8h43v0.1h110.4h33.7h41.3v-0.1h42.5V234.8h31.7
		C515.1,234.8,515.3,234.7,515.6,234.7z M261.5,289.5c-8.2-1.4-14.5-8.6-14.5-17.2c0-4.8,2-9.2,5.1-12.3c1.1,2.1,2.8,3.8,4.7,5.2
		c0.6,1.8,1.3,3.6,2.1,5.4c0.5,1.2,1.1,2.4,1.6,3.6c0.3,0.7,0.6,1.4,1,2c0.5,1,1,2,1.6,3c0.5,0.9,1.1,1.9,1.6,2.8
		c0.4,0.7,0.9,1.5,1.3,2.2c1.1,1.7,2.2,3.3,3.4,4.9c-1.6,0.5-3.2,0.7-4.9,0.7c-0.9,0-1.8-0.1-2.6-0.2
		C261.7,289.5,261.6,289.5,261.5,289.5z M348.5,319.6c-8.6,0-17-1.2-24.9-3.4c-18.9-5.3-35.5-16.3-46.9-31.1
		c-4.2-5.4-7.6-11.2-10.3-17.5h164.3c0,0,0,0,0,0c-1,2.3-2.1,4.5-3.3,6.7C412.7,301.4,382.2,319.6,348.5,319.6z M422.9,294.9
		c2.5,0.9,5.1,1.3,7.8,1.3c0.7,0,1.5,0,2.2-0.1c-0.2,1.8-0.8,3.4-1.7,4.9c-2.2,3.6-6.1,6.1-10.7,6.1h-10.7c3.2-2.5,6.3-5.2,9.1-8.1
		C420.4,297.7,421.7,296.3,422.9,294.9z M287.1,307.1h-11.7c-3.6,0-6.7-1.5-9-3.8c-1.8-1.9-3-4.3-3.3-7.1c0.5,0,0.9,0.1,1.4,0.1
		c2.3,0,4.4-0.3,6.5-0.9c0.1,0,0.3-0.1,0.4-0.1c0,0,0.1,0,0.1,0c0.7-0.2,1.5-0.5,2.2-0.8C277.7,299,282.2,303.3,287.1,307.1z
		 M430.5,258.5C430.5,258.5,430.5,258.5,430.5,258.5c-0.4,0.1-0.9,0.1-1.3,0.1h-0.7h-6.5v-19.1c0-1.3-1.1-2.4-2.4-2.4
		c-1.3,0-2.4,1.1-2.4,2.4v19.1h-15.6v-19.1c0-1.3-1.1-2.4-2.4-2.4c-1.3,0-2.4,1.1-2.4,2.4v19.1h-15.6v-19.1c0-1.3-1.1-2.4-2.4-2.4
		c-1.3,0-2.4,1.1-2.4,2.4v19.1h-15.6v-19.1c0-1.3-1.1-2.4-2.4-2.4c-1.3,0-2.4,1.1-2.4,2.4v19.1h-15.6v-19.1c0-1.3-1.1-2.4-2.4-2.4
		c-1.3,0-2.4,1.1-2.4,2.4v19.1h-15.6v-19.1c0-1.3-1.1-2.4-2.4-2.4c-1.3,0-2.4,1.1-2.4,2.4v19.1h-15.6v-19.1c0-1.3-1.1-2.4-2.4-2.4
		c-1.3,0-2.4,1.1-2.4,2.4v18.7v0.4v0H279v-0.2v-18.9c0-0.5-0.2-1-0.4-1.3c-0.3-0.4-0.6-0.7-1.1-0.9c-0.2-0.1-0.5-0.2-0.8-0.2
		c-0.1,0-0.1,0-0.2,0h0c-0.5,0-1,0.2-1.3,0.4c-0.3,0.2-0.5,0.4-0.7,0.7c-0.1,0.2-0.2,0.4-0.3,0.6c-0.1,0.2-0.1,0.5-0.1,0.7v19.1v0
		h-5.5c0,0-0.8,0-0.8,0c-1.3,0-2.5-0.4-3.6-1c-2.9-1.6-4.9-4.9-4.9-8.3v-13c0,0,0-6.3,0-6.3c0,0,0-11.6,0-11.6H288h125.6h24.2v6.8
		v2.1v8.9v13.1c0,1.3-0.3,2.6-0.8,3.7c-0.6,1.3-1.5,2.5-2.5,3.4C433.3,257.6,432,258.3,430.5,258.5z M316.8,340.7v4.3h-14.2H300
		v-10.7c0-1.9-1.6-3.5-3.5-3.5c-1.9,0-3.5,1.6-3.5,3.5V345h-8.3H263v-12.8c0-1.8,0.1-3.5,0.3-5.3c0.3-2.6,0.7-5.2,1.3-7.6
		c0.6-2.5,1.4-4.9,2.3-7.2c1,0.5,2,0.9,3,1.2c1.7,0.5,3.6,0.8,5.5,0.8h0h12.5h9.6c8.9,5.1,18.7,9,29.2,11.2l-1.3,0.7
		c-1.3,0.7-2.4,1.6-3.4,2.6C318.7,331.7,316.8,336.1,316.8,340.7z M433,345h-30.6h-2.9v-10.7c0-1.9-1.6-3.5-3.5-3.5
		c-1.9,0-3.5,1.6-3.5,3.5V345h-0.8h-22h-46.3v-4.3c0-3.8,2-7.3,5.3-9.1l2-1.2l5.7-3.3c0.1-0.1,0.2-0.2,0.3-0.2
		c3.9,0.4,7.8,0.7,11.8,0.7c18.7,0,36.2-4.9,51-13.5h21.1c0.5,0,1,0,1.5-0.1c2.5-0.2,4.8-0.9,7-1.9c2.5,6.2,3.9,13,3.9,20.1V345z
		 M447.9,275.2c-1.1,6.7-6.1,12.1-12.5,13.9c0,0-0.1,0-0.1,0c-0.5,0.1-0.9,0.2-1.4,0.3c-0.2,0-0.3,0-0.5,0.1
		c-0.4,0.1-0.7,0.1-1.1,0.2c-0.5,0.1-1.1,0.1-1.7,0.1c-1.2,0-2.3-0.1-3.4-0.3c1.2-1.5,2.2-3.1,3.3-4.7c0.5-0.7,0.9-1.4,1.3-2.1
		c0.5-0.8,0.9-1.6,1.4-2.4c1.2-2.2,2.4-4.5,3.5-6.8c0.1-0.2,0.2-0.4,0.3-0.6c1.1-2.5,2.2-5,3-7.6c1.6-1,2.9-2.4,4-3.9
		c2.5,3,4,6.9,4,11.1C448.2,273.3,448.1,274.3,447.9,275.2z M448.8,136.1c-6.9,4-11.1,11.3-11.1,19.2v12.3v42h-14.9h-2.9h-6.3H411
		h-13c0.1-0.4,0.1-0.7,0.1-1.1v-67.7c0-3.3-2-5-4.6-5c-2.5,0-4.6,1.6-4.6,5v67.7c0,0.4,0,0.8,0.1,1.1h-36.7c0.1-0.4,0.1-0.7,0.1-1.1
		v-67.7c0-3.3-2-5-4.6-5c-2.5,0-4.6,1.6-4.6,5v67.7c0,0.4,0,0.8,0.1,1.1h-57.3h-8.9h-17.8v-0.2v-54.1c0-8-4.3-15.4-11.3-19.4
		c-14.2-8.3-23.4-23.2-24.3-39.6c-1.5-26.9,18.9-49.9,45.7-51.7c0.2,0,0.3,0,0.5,0c3.1-0.2,6.3,0,9.4,0.4c-3.3,7.3-5.4,15-6.2,23
		c-0.1,1-0.2,2-0.2,3c0,0.1,0,0.1,0,0.1c-0.1,2.5,1.9,4.6,4.5,4.6c1.3,0,2.5-0.6,3.3-1.5c0.7-0.7,1.1-1.7,1.2-2.7
		c0.1-0.9,0.1-1.8,0.2-2.7c0.9-8.8,3.5-17.3,7.8-25c5.3-9.8,12.9-18,22.2-24.1c10.4-6.8,22-10.3,33.5-10.8c0.7,0,1.3,0,2-0.1
		c0.3,0,0.6,0,0.9,0c0.7,0,1.4,0,2.1,0c0.5,0,1,0,1.6,0.1c0.6,0,1.2,0.1,1.8,0.1c19.9,1.6,38.9,12,50.7,30c-1.3,0.5-2.6,1-3.9,1.6
		c-0.4,0.2-0.8,0.4-1.2,0.6c-0.9,0.4-1.7,0.8-2.5,1.3c-0.5,0.3-0.9,0.5-1.4,0.8c-0.8,0.4-1.5,0.9-2.2,1.4c-0.5,0.3-0.9,0.6-1.4,0.9
		c-0.7,0.5-1.4,1-2.1,1.5c-0.4,0.3-0.9,0.7-1.3,1c-0.7,0.6-1.4,1.1-2.1,1.7c-0.4,0.3-0.8,0.6-1.1,1c-0.8,0.7-1.6,1.5-2.3,2.3
		c-0.2,0.2-0.4,0.4-0.7,0.6c-0.9,1-1.8,2-2.7,3c0,0,0,0.1-0.1,0.1c-1.6,2-1.2,5,0.9,6.4l0,0l0,0c1.9,1.3,4.5,1,5.9-0.8
		c0-0.1,0.1-0.1,0.2-0.2c0.3-0.3,0.6-0.7,0.9-1c0.6-0.7,1.3-1.4,1.9-2.1c0.4-0.4,0.8-0.7,1.2-1.1c0.6-0.6,1.3-1.2,1.9-1.7
		c0.4-0.4,0.9-0.7,1.3-1.1c0.6-0.5,1.3-1,2-1.5c0.5-0.3,0.9-0.7,1.4-1c0.7-0.5,1.4-0.9,2.1-1.3c0.5-0.3,1-0.6,1.5-0.9
		c0.7-0.4,1.5-0.8,2.3-1.2c0.5-0.2,1-0.5,1.5-0.7c0.9-0.4,1.7-0.7,2.6-1.1c0.4-0.2,0.9-0.3,1.3-0.5c1.3-0.5,2.7-0.9,4-1.2
		c9.1-2.3,18.6-1.9,27.5,1.1c18.7,6.3,31.9,23.2,33.4,42.9c0.1,0.7,0.1,1.4,0.1,2.1C473.9,110.2,464.5,127.2,448.8,136.1z"/>
	<path class="st7" d="M1091,280.6l-24.1,9.4c-0.4,3.1-1,5.9-1.7,8.4c-1.7,5.7-3.9,10.2-6.8,13.7c-2.8,3.5-6.1,6-9.8,7.6
		c-3.7,1.6-7.5,2.4-11.5,2.4c-8.2,0-15.5-3.6-21.8-10.7c-6.3-7.1-9.5-18.4-9.5-33.7c0-8.8,0.8-16.1,2.5-21.9
		c1.7-5.8,3.9-10.5,6.8-14c2.8-3.6,6.1-6.1,9.8-7.6c3.7-1.5,7.5-2.2,11.5-2.2c3.7,0,7.3,0.7,10.9,2.2l2.1-3.5
		c4.8-7.7,12.6-12.7,21.6-13.8l18.5-2.2c-6.1-5.1-13.2-9-21.1-11.8c-5.4-1.9-11.1-3.2-17-4.1l-0.7-0.1c-0.4,0-0.8-0.1-1.2-0.2
		c-3.9-0.5-8-0.7-12.1-0.7c-11.1,0-21.6,1.8-31.2,5.5c-6.7,2.6-12.8,5.9-18.3,10V230v2.6l-1.6,2.1l-28.1,37.2
		c-0.2,2.4-0.3,4.8-0.3,7.3c0,12.1,2,22.9,5.9,32.4h18h7.7v7.7v23.8c4.8,3.1,9.9,5.8,15.6,7.9c9.6,3.5,19.9,5.2,31.1,5.2
		c11.1,0,21.5-1.8,31.2-5.5c9.7-3.7,18.1-9,25.2-15.9c7.1-6.9,12.8-15.3,16.9-25.2c4.1-9.9,6.1-21,6.1-33.4c0-9.6-1.1-18.4-3.4-26.3
		l-3.7,12C1105.8,270.5,1099.5,277.3,1091,280.6z"/>
	<path class="st7" d="M898.5,234.8h30.3l-67.5,88.3v29.6h120.5v-15.5h0v-17.9h0h-69.1h0l47.8-63.2c0,0,0,0,0,0l19.7-26v0v-28.7
		H865.1C865.1,219.8,880.1,234.8,898.5,234.8z"/>
	<path class="st7" d="M736.9,244.9c-1.5,3.8-2.8,7.8-3.7,11.9c-1.3,5.6-2,11.5-2.3,17.7c-0.1,1.6-0.1,3.1-0.1,4.7c0,3,0.1,6,0.4,8.9
		c0.7,8.7,2.6,16.6,5.6,23.7c3,7.2,6.8,13.5,11.5,19c1.6,1.8,3.2,3.5,4.9,5.2c1.7,1.6,3.6,3.2,5.4,4.6c5.7,4.3,12.1,7.8,19.3,10.4
		c2.4,0.9,4.8,1.6,7.3,2.3c6.2,1.6,12.8,2.6,19.6,2.8c1.4,0.1,2.7,0.1,4.1,0.1c4.2,0,8.3-0.3,12.2-0.8c2.6-0.3,5.2-0.8,7.8-1.4
		c3.8-0.9,7.6-2,11.2-3.4c3.6-1.4,7.1-3,10.3-4.8c1.1-0.6,2.1-1.2,3.1-1.8v-20.9v-2.6l1.6-2.1l33.2-43.4c-0.1-5.7-0.5-11.2-1.4-16.3
		c-0.1-0.5-0.2-1-0.3-1.5c-0.4-2.1-0.9-4.2-1.4-6.3c-0.5-1.7-0.9-3.3-1.5-4.9c-0.4-1.3-0.9-2.5-1.4-3.7c-0.6-1.4-1.3-2.7-1.9-4.1
		c-10.6-5.2-18.6-14.7-21.7-26.3c-1-0.7-2-1.4-3-2c-1-0.6-2-1.2-3-1.8c-3.6-2-7.5-3.8-11.6-5.2c-2.4-0.8-4.8-1.6-7.3-2.2
		c-2.5-0.6-5-1.2-7.6-1.6c-5.2-0.8-10.5-1.3-16.1-1.3c-11.1,0-21.6,1.8-31.2,5.5c-9.7,3.7-18.1,9-25.2,15.9
		c-2.7,2.6-5.1,5.4-7.4,8.5c-2.3,3-4.3,6.3-6.1,9.8C739.1,239.9,737.9,242.3,736.9,244.9z M781.2,255.7c1.3-4.3,2.8-8,4.8-11.1
		c0.6-1,1.3-2,2-2.9c0.7-0.9,1.4-1.7,2.2-2.5c2.3-2.3,4.8-4,7.6-5.1c0.9-0.4,1.8-0.7,2.8-1c1.9-0.6,3.8-0.9,5.8-1.1
		c1-0.1,2-0.1,3-0.1c2,0,4,0.2,5.9,0.6c1.9,0.4,3.9,1.1,5.8,1.9c1.6,0.7,3.1,1.7,4.6,2.7c0.3,0.3,0.7,0.5,1,0.8
		c1.6,1.3,3.1,2.8,4.5,4.5c2.9,3.7,5.3,8.4,6.9,14.2c0.4,1.4,0.8,3,1.1,4.6c0.9,4.8,1.4,10.3,1.4,16.4c0,6.1-0.5,11.6-1.4,16.3
		c-0.3,1.6-0.7,3.1-1.1,4.5c-0.8,2.8-1.8,5.4-3,7.7c-1.1,2.3-2.4,4.3-3.8,6c-2.8,3.5-6.1,6-9.8,7.6c-1.8,0.8-3.7,1.4-5.6,1.8
		c-1.9,0.4-3.9,0.6-5.9,0.6c-3.1,0-6-0.5-8.8-1.5c-2.8-1-5.5-2.5-8-4.5c-0.8-0.7-1.7-1.4-2.5-2.2c-0.8-0.8-1.6-1.6-2.4-2.5
		c-1.6-1.8-3-3.8-4.1-6.1c-3.5-6.9-5.3-16.1-5.3-27.6C778.7,268.8,779.5,261.5,781.2,255.7z"/>
	<path class="st6" d="M509.5,373c0,4.2,3.4,7.7,7.7,7.7h543.9c4.2,0,7.7-3.4,7.7-7.7c0-4.2-3.4-7.7-7.7-7.7H517.2
		C512.9,365.3,509.5,368.8,509.5,373z"/>
	<path class="st6" d="M474.5,365.3H351.4c-4.2,0-7.7,3.4-7.7,7.7c0,4.2,3.4,7.7,7.7,7.7h123.1c4.2,0,7.7-3.4,7.7-7.7
		C482.1,368.8,478.7,365.3,474.5,365.3z"/>
	<path class="st6" d="M313.2,365.3h-38.4c-4.2,0-7.7,3.4-7.7,7.7c0,4.2,3.4,7.7,7.7,7.7h38.4c4.2,0,7.7-3.4,7.7-7.7
		C320.9,368.8,317.4,365.3,313.2,365.3z"/>
	<path class="st6" d="M246.5,366.3c-3.7,0-6.7,3-6.7,6.7c0,3.7,3,6.7,6.7,6.7c3.7,0,6.7-3,6.7-6.7
		C253.1,369.3,250.2,366.3,246.5,366.3z"/>
	<path class="st6" d="M360.1,334.4c-1.8,0-3.3,1.5-3.3,3.3c0,1.8,1.5,3.3,3.3,3.3c1.8,0,3.3-1.5,3.3-3.3
		C363.4,335.9,361.9,334.4,360.1,334.4z"/>
	<path class="st6" d="M347.1,334.4c-1.8,0-3.3,1.5-3.3,3.3c0,1.8,1.5,3.3,3.3,3.3c1.8,0,3.3-1.5,3.3-3.3
		C350.3,335.9,348.9,334.4,347.1,334.4z"/>
	<path class="st6" d="M302.2,134.7c-2.5,0-4.6,1.8-4.6,4v45.1c0,2.2,2,4,4.6,4c2.5,0,4.6-1.8,4.6-4v-45.1
		C306.8,136.6,304.7,134.7,302.2,134.7z"/>
	<path class="st6" d="M393.4,117.9c-2.8,0-5.1,2.3-5.1,5.1s2.3,5.1,5.1,5.1c2.8,0,5.1-2.3,5.1-5.1S396.2,117.9,393.4,117.9z"/>
	<path class="st6" d="M372,65.5c-2.8,0-5.1,2.3-5.1,5.1s2.3,5.1,5.1,5.1s5.1-2.3,5.1-5.1S374.8,65.5,372,65.5z"/>
	<path class="st6" d="M302.4,117.9c-2.8,0-5.1,2.3-5.1,5.1s2.3,5.1,5.1,5.1s5.1-2.3,5.1-5.1S305.2,117.9,302.4,117.9z"/>
	<path class="st6" d="M355,293.4c-0.9,1.1-2.3,1.7-3.8,1.7c-1.5,0-2.9-0.6-3.8-1.7c-1.2-1.4-3.4-1.6-4.8-0.3
		c-1.4,1.2-1.6,3.4-0.3,4.8c2.2,2.5,5.5,4,8.9,4c3.5,0,6.7-1.5,8.9-4c1.2-1.4,1.1-3.5-0.3-4.8C358.4,291.8,356.3,292,355,293.4z"/>
	<path class="st6" d="M315.4,293.4c4.1,0,7.5-3.3,7.5-7.5c0-4.1-3.3-7.5-7.5-7.5c-4.1,0-7.5,3.3-7.5,7.5
		C307.9,290.1,311.3,293.4,315.4,293.4z M317.5,285.3c1.2,0,2.1,0.9,2.1,2.1c0,1.2-0.9,2.1-2.1,2.1s-2.1-0.9-2.1-2.1
		C315.3,286.2,316.3,285.3,317.5,285.3z"/>
	<path class="st6" d="M387,293.4c4.1,0,7.5-3.3,7.5-7.5c0-4.1-3.3-7.5-7.5-7.5c-4.1,0-7.5,3.3-7.5,7.5
		C379.5,290.1,382.9,293.4,387,293.4z M385,285.3c1.2,0,2.1,0.9,2.1,2.1c0,1.2-0.9,2.1-2.1,2.1c-1.2,0-2.1-0.9-2.1-2.1
		C382.9,286.2,383.8,285.3,385,285.3z"/>
	<circle class="st8" cx="317.5" cy="287.4" r="2.1"/>
	<circle class="st8" cx="385" cy="287.4" r="2.1"/>
	<path class="st6" d="M364.8,393.8h-9.5l-5.3,29.9h10c12.9,0,19.3-8.3,19.3-17.9C379.3,398.5,374.5,393.8,364.8,393.8z M361.3,417.9
		h-3.1l3.3-18.4h3c5,0,7.2,2.2,7.2,6.5C371.7,413.1,368.2,417.9,361.3,417.9z"/>
	<path class="st6" d="M390.9,418.9c-2.2,0-2.9-1.3-3.1-3.3c7.3-0.7,13.1-3.3,13.1-8.6c0-3.7-2.6-5.9-7-5.9c-7.2,0-12.9,5.9-12.9,14
		c0,5.5,3.1,9.1,8.8,9.1c4.4,0,7.2-1.6,9.1-3.1l-2.4-4.4C395,417.8,393.2,418.9,390.9,418.9z M392.7,406.2c1.2,0,1.8,0.6,1.8,1.7
		c0,2-2.5,3.3-6.5,3.7C388.7,408.8,390.2,406.2,392.7,406.2z"/>
	<path class="st6" d="M412.4,406c1.5,0,2.9,0.8,3.6,1.3l2.8-4.2c-1.6-1.3-3.9-2.1-6.9-2.1c-5.2,0-8.1,2.7-8.1,6.5
		c0,2.5,1.3,4.2,2.9,5.8c1.7,1.8,3.2,2.9,3.2,4.1c0,1-0.7,1.7-2.4,1.7c-2,0-3.5-0.9-4.6-1.7l-2.6,4.5c1.2,0.8,3.4,2.2,7.5,2.2
		c5.8,0,8.9-2.4,8.9-6.7c0-2.8-1.8-4.5-3.7-6.5c-1.5-1.6-2.7-2.5-2.7-3.4C410.4,406.6,411.1,406,412.4,406z"/>
	<path class="st6" d="M431.6,395.2c0-2-1.6-3.8-3.9-3.8s-3.9,1.7-3.9,3.8c0,2,1.6,3.8,3.9,3.8S431.6,397.2,431.6,395.2z"/>
	<polygon class="st6" points="419.5,423.7 426.2,423.7 430.1,401.7 423.5,401.7 	"/>
	<path class="st6" d="M431.9,416.7c0,4.4,2.6,7.3,6,7.3c3.5,0,5.4-2.1,7.1-4.9h0.1c-0.3,1.2-0.5,2.1-0.9,3.7l-0.1,0.8
		c-0.7,3.4-2,4.8-5.2,4.8c-2.6,0-4.6-1.3-5.7-2.1l-2.9,5c2,1.3,4.8,2.6,8.7,2.6c7.5,0,10.4-3.1,11.8-10.8l3.8-20.9
		c-0.9-0.3-3.7-1.1-8.6-1.1C437.5,401.1,431.9,407,431.9,416.7z M447,407.1c-1.7,9-4.4,11.4-6.4,11.4c-1.3,0-1.8-1.2-1.8-3
		c0-6.2,3.1-9.5,6.3-9.5c0.9,0,1.7,0.1,2,0.2L447,407.1z"/>
	<path class="st6" d="M472.6,401.1c-4.1,0-6.1,2.7-7.6,5h-0.1c0.3-1.2,0.7-3.3,0.9-4.4h-6.4l-4,22h6.6l0.3-1.6
		c2.2-12.6,5-15.1,7-15.1c1,0,1.4,0.5,1.4,1.8c0,0.4,0,0.8-0.1,1.3l-2.4,13.7h6.6l2.6-14c0.2-1,0.3-2,0.3-2.9
		C477.5,403.1,475.7,401.1,472.6,401.1z"/>
	<polygon class="st6" points="489.5,423.7 496.1,423.7 500.1,401.7 493.5,401.7 	"/>
	<path class="st6" d="M497.8,391.5c-2.3,0-3.9,1.7-3.9,3.8c0,2,1.6,3.8,3.9,3.8s3.9-1.8,3.9-3.8C501.6,393.2,500,391.5,497.8,391.5z
		"/>
	<path class="st6" d="M514.5,394.3l-7.1,1.9l-1,5.4h-3.4l-0.9,5h3.4l-1.7,9.2c-0.2,1.2-0.4,2.2-0.4,3.2c0,3.6,1.7,5.1,5.2,5.1
		c3.7,0,6.1-1.3,7.6-2.4l-1.9-4.5c-0.9,0.6-1.9,1.3-3,1.3c-0.7,0-1-0.4-1-1.4c0-0.4,0-1,0.2-1.6l1.6-8.9h5.7l0.9-5h-5.6L514.5,394.3
		z"/>
	<path class="st6" d="M555.8,401.7l-5.9,14h-0.1c0-0.3,0-2.1-0.1-4.5l-0.5-9.6h-5.7l-6.3,14.1h-0.1c0-0.4,0.1-2.2,0.1-4.4l-0.4-9.8
		h-7l2.2,22h5.9l7-14.4h0.1l0.9,14.4h6.2l10.4-22H555.8z"/>
	<path class="st6" d="M570,391.5c-2.3,0-3.9,1.7-3.9,3.8c0,2,1.6,3.8,3.9,3.8c2.3,0,3.9-1.8,3.9-3.8
		C573.9,393.2,572.3,391.5,570,391.5z"/>
	<polygon class="st6" points="561.7,423.7 568.4,423.7 572.4,401.7 565.8,401.7 	"/>
	<path class="st6" d="M584.5,406.7h5.7l0.9-5h-5.6l1.3-7.4l-7.1,1.9l-1,5.4h-3.4l-0.9,5h3.4l-1.7,9.2c-0.2,1.2-0.4,2.2-0.4,3.2
		c0,3.6,1.8,5.1,5.2,5.1c3.7,0,6.1-1.3,7.6-2.4l-1.9-4.5c-0.9,0.6-1.9,1.3-3,1.3c-0.7,0-1-0.4-1-1.4c0-0.4,0-1,0.2-1.6L584.5,406.7z
		"/>
	<path class="st6" d="M607.9,401.1c-4.1,0-6.1,2.6-7.6,4.9h-0.1c0.3-1.1,0.7-2.5,1-4.4l1.9-10.3h-6.6l-5.9,32.3h6.6l0.3-1.6
		c2.2-12.6,5-15.1,7-15.1c1,0,1.4,0.5,1.4,1.8c0,0.4,0,0.8-0.1,1.3l-2.4,13.7h6.6l2.6-14c0.2-1,0.3-2,0.3-2.9
		C612.8,403.1,611.1,401.1,607.9,401.1z"/>
	<path class="st6" d="M638.3,406.5c1.8,0,2.7,0.4,3.5,0.9l2.6-5c-1.1-0.7-2.8-1.4-5.9-1.4c-7.3,0-13.5,5.5-13.5,14.2
		c0,5.3,3.2,8.9,9.1,8.9c3.5,0,6.1-1.5,7.5-2.6l-2.4-4.5c-0.8,0.7-2.2,1.7-3.9,1.7c-2.2,0-3.4-1.3-3.4-4.2
		C631.8,409.6,634.8,406.5,638.3,406.5z"/>
	<path class="st6" d="M644.3,416.8c0,4.7,2.5,7.4,5.8,7.4c3.4,0,5.5-2.4,7.2-5.4h0.1c-0.3,1.3-0.5,3.5-0.6,4.9h6.6
		c0-2.1,0.4-5.8,1.4-11.8l1.7-9.4c-1.1-0.5-3.9-1.4-8.1-1.4C650.3,401.1,644.3,407,644.3,416.8z M659.1,407.1
		c-1.7,8.7-4.2,11.4-6,11.4c-1.3,0-1.8-1-1.8-2.8c0-6.1,3.2-9.6,6.2-9.6c0.8,0,1.4,0.1,1.8,0.2L659.1,407.1z"/>
	<path class="st6" d="M684.2,401.1c-3.3,0-5.5,2.9-6.9,5.6h-0.1c0.3-1.1,0.8-3.6,0.9-5h-6.4l-4,22h6.6l0.3-1.6
		c2.2-12.6,5.2-14.5,8-14.5c0.9,0,1.6,0.2,2.1,0.4l2.2-6.4C686.2,401.3,685.3,401.1,684.2,401.1z"/>
	<path class="st6" d="M705.8,407c0-3.7-2.6-5.9-7-5.9c-7.2,0-12.9,5.9-12.9,14c0,5.5,3.1,9.1,8.8,9.1c4.4,0,7.2-1.6,9.1-3.1
		l-2.4-4.4c-1.5,1.1-3.3,2.2-5.6,2.2c-2.2,0-2.9-1.3-3.1-3.3C700,414.9,705.8,412.4,705.8,407z M692.9,411.5
		c0.6-2.7,2.2-5.3,4.7-5.3c1.2,0,1.8,0.6,1.8,1.7C699.5,409.8,697,411.2,692.9,411.5z"/>
	<path class="st6" d="M711.3,415.9c-2.3,0-4.1,1.6-4.1,3.9c0,2.4,1.7,3,1.7,5c0,1.7-1.1,2.9-2.6,4.3l2.6,2.4c3.5-3,6.5-7.1,6.5-10.8
		C715.5,417.8,713.8,415.9,711.3,415.9z"/>
	<path class="st6" d="M756.8,401.7l-5.9,14h-0.1c0-0.3,0-2.1-0.1-4.5l-0.5-9.6h-5.7l-6.3,14.1h-0.1c0-0.4,0.1-2.2,0.1-4.4l-0.4-9.8
		h-7l2.2,22h5.9l7-14.4h0.1l0.9,14.4h6.2l10.4-22H756.8z"/>
	<path class="st6" d="M782.4,407c0-3.7-2.6-5.9-7-5.9c-7.2,0-12.9,5.9-12.9,14c0,5.5,3.1,9.1,8.8,9.1c4.4,0,7.2-1.6,9.1-3.1
		l-2.4-4.4c-1.5,1.1-3.3,2.2-5.6,2.2c-2.2,0-2.9-1.3-3.1-3.3C776.6,414.9,782.4,412.4,782.4,407z M769.6,411.5
		c0.6-2.7,2.2-5.3,4.7-5.3c1.2,0,1.8,0.6,1.8,1.7C776.1,409.8,773.6,411.2,769.6,411.5z"/>
	<polygon class="st6" points="789.3,391.4 783.5,423.7 790.1,423.7 795.9,391.4 	"/>
	<polygon class="st6" points="795.5,423.7 802.2,423.7 808,391.4 801.4,391.4 	"/>
	<path class="st6" d="M835.8,391.4l-1.8,10c-0.5-0.1-1.3-0.3-2.8-0.3c-7.5,0-13.3,5.9-13.3,15.6c0,4.7,2.4,7.5,6,7.5
		c3.5,0,5.6-2.4,7.3-5.4h0.1c-0.3,1.3-0.4,3.5-0.5,4.9h6.6c0-2.1,0.4-5.8,1.4-11.8l3.7-20.5H835.8z M832.9,407.1
		c-1.7,8.8-4.4,11.4-6.4,11.4c-1.3,0-1.8-1.2-1.8-3c0-6.2,3.1-9.5,6.3-9.5c0.9,0,1.7,0.1,2,0.2L832.9,407.1z"/>
	<path class="st6" d="M854.6,401.1c-7.3,0-12.8,6.1-12.8,14c0,5.2,3.4,9.2,9.1,9.2c7.5,0,12.7-5.7,12.7-13.9
		C863.6,405,860.2,401.1,854.6,401.1z M851.6,419.1c-2,0-2.9-1.7-2.9-4.3c0-3.7,2-8.7,5.4-8.7c2,0,2.9,1.5,2.9,4.1
		C856.9,414,855.2,419.1,851.6,419.1z"/>
	<path class="st6" d="M882.3,401.1c-4.1,0-6.1,2.7-7.6,5h-0.1c0.3-1.2,0.7-3.3,0.9-4.4H869l-4,22h6.6l0.3-1.6
		c2.2-12.6,5-15.1,7-15.1c1,0,1.4,0.5,1.4,1.8c0,0.4,0,0.8-0.1,1.3l-2.4,13.7h6.6l2.6-14c0.2-1,0.3-2,0.3-2.9
		C887.2,403.1,885.4,401.1,882.3,401.1z"/>
	<path class="st6" d="M909.4,407c0-3.7-2.6-5.9-7-5.9c-7.2,0-12.9,5.9-12.9,14c0,5.5,3.1,9.1,8.8,9.1c4.4,0,7.2-1.6,9.1-3.1
		l-2.4-4.4c-1.5,1.1-3.3,2.2-5.6,2.2c-2.2,0-2.9-1.3-3.1-3.3C903.7,414.9,909.4,412.4,909.4,407z M896.6,411.5
		c0.6-2.7,2.2-5.3,4.7-5.3c1.2,0,1.8,0.6,1.8,1.7C903.1,409.8,900.7,411.2,896.6,411.5z"/>
	<path class="st6" d="M937.4,401.1c-4.1,0-6.1,2.7-7.6,5h-0.1c0.3-1.2,0.7-3.3,0.9-4.4h-6.4l-4,22h6.6l0.3-1.6
		c2.2-12.6,5-15.1,7-15.1c1,0,1.4,0.5,1.4,1.8c0,0.4,0,0.8-0.1,1.3l-2.4,13.7h6.6l2.6-14c0.2-1,0.3-2,0.3-2.9
		C942.3,403.1,940.6,401.1,937.4,401.1z"/>
	<path class="st6" d="M957.4,401.1c-7.3,0-12.8,6.1-12.8,14c0,5.2,3.4,9.2,9.1,9.2c7.5,0,12.7-5.7,12.7-13.9
		C966.4,405,963.1,401.1,957.4,401.1z M954.4,419.1c-2,0-2.9-1.7-2.9-4.3c0-3.7,2-8.7,5.4-8.7c2,0,2.9,1.5,2.9,4.1
		C959.7,414,958,419.1,954.4,419.1z"/>
	<path class="st6" d="M980.8,394.3l-7.1,1.9l-1,5.4h-3.4l-0.9,5h3.4l-1.7,9.2c-0.2,1.2-0.4,2.2-0.4,3.2c0,3.6,1.8,5.1,5.2,5.1
		c3.7,0,6.1-1.3,7.6-2.4l-1.9-4.5c-0.9,0.6-1.9,1.3-3,1.3c-0.7,0-1-0.4-1-1.4c0-0.4,0-1,0.2-1.6l1.6-8.9h5.7l0.9-5h-5.6L980.8,394.3
		z"/>
	<path class="st6" d="M1021.1,401.4c0-4.8-3.5-7.6-10-7.6H1001l-5.3,29.9h7.1l2.1-11.8h0.6c1.3,0,1.8,0.7,3,3.2l3.7,8.6h7.5
		l-3.5-7.9c-1.2-2.8-2.1-4.1-3.1-5v-0.1C1017.5,409.8,1021.1,407.1,1021.1,401.4z M1009,406.8h-3.3l1.4-7.6h3c2.7,0,3.8,0.9,3.8,3.1
		C1013.9,405,1012.3,406.8,1009,406.8z"/>
	<path class="st6" d="M1022.1,416.8c0,4.7,2.5,7.4,5.8,7.4c3.4,0,5.5-2.4,7.2-5.4h0.1c-0.3,1.3-0.5,3.5-0.6,4.9h6.6
		c0-2.1,0.4-5.8,1.4-11.8l1.7-9.4c-1.1-0.5-3.9-1.4-8.1-1.4C1028.1,401.1,1022.1,407,1022.1,416.8z M1036.9,407.1
		c-1.7,8.7-4.2,11.4-6,11.4c-1.3,0-1.8-1-1.8-2.8c0-6.1,3.2-9.6,6.2-9.6c0.8,0,1.4,0.1,1.8,0.2L1036.9,407.1z"/>
	<path class="st6" d="M1062,401.1c-3.3,0-5.5,2.9-6.9,5.6h-0.1c0.3-1.1,0.8-3.6,0.9-5h-6.4l-4,22h6.6l0.3-1.6
		c2.2-12.6,5.2-14.5,8-14.5c0.9,0,1.6,0.2,2.1,0.4l2.2-6.4C1064,401.3,1063.1,401.1,1062,401.1z"/>
	<path class="st6" d="M1083.6,407c0-3.7-2.6-5.9-7-5.9c-7.2,0-12.9,5.9-12.9,14c0,5.5,3.1,9.1,8.8,9.1c4.4,0,7.2-1.6,9.1-3.1
		l-2.4-4.4c-1.5,1.1-3.3,2.2-5.6,2.2c-2.2,0-2.9-1.3-3.1-3.3C1077.8,414.9,1083.6,412.4,1083.6,407z M1070.8,411.5
		c0.6-2.7,2.2-5.3,4.7-5.3c1.2,0,1.8,0.6,1.8,1.7C1077.3,409.8,1074.8,411.2,1070.8,411.5z"/>
	<polygon class="st6" points="1087.7,413.2 1092.8,413.2 1097.8,393.8 1090,393.8 	"/>
	<path class="st6" d="M1089.3,416.1c-2.4,0-4.1,1.8-4.1,3.9c0,2.2,1.7,4,4.1,4c2.4,0,4.1-1.8,4.1-4
		C1093.5,417.9,1091.8,416.1,1089.3,416.1z"/>
	<path class="st6" d="M1146.7,271.4l-5-0.5c0-0.1,0-0.1,0-0.2c-0.2-16.7-5-32.9-13.8-47.1c-0.1-0.1-0.1-0.2-0.2-0.3l0-0.1
		c2-2.1,3.3-4.9,3.6-8c0.7-7.5-4.8-14.1-12.3-14.8c-3.3-0.3-6.4,0.6-9,2.4l0,0c-0.1-0.1-0.2-0.2-0.2-0.3
		c-11.8-10.1-26.1-16.9-41.3-19.9c-0.1,0-0.2,0-0.2,0l0.5-5c0.1-1.2-0.8-2.4-2.1-2.5l-13.6-1.2c-1.2-0.1-2.4,0.8-2.5,2.1l-1.2,13.6
		c-0.1,1.2,0.8,2.4,2.1,2.5l13.6,1.2c1.2,0.1,2.4-0.8,2.5-2.1l0.4-4c14.3,2.8,27.7,9.3,38.9,18.8l0.1,0.1c-1.4,1.9-2.3,4.2-2.6,6.8
		c-0.2,2.5,0.2,4.8,1.2,6.9l2.5-0.3c0.7-0.1,1.4,0,2.1,0.3l-3.1,2.6c0.9,1.2,2,2.3,3.3,3.1l2.7-2.2c0,0.2,0.1,0.4,0.1,0.5
		s0,0.4,0,0.5c0,0.2,0,0.4-0.1,0.5s-0.1,0.3-0.1,0.5l-0.4,1.3c1.3,0.6,2.7,0.9,4.2,1.1c2.7,0.2,5.3-0.3,7.6-1.5l0.1,0.1
		c8.3,13.3,12.8,28.6,13,44.3l-4.1-0.4c-1.2-0.1-2.4,0.8-2.5,2.1l-1.2,13.6c-0.1,1.2,0.8,2.4,2.1,2.5l13.6,1.2
		c1.2,0.1,2.4-0.8,2.5-2.1l1.2-13.6C1148.8,272.6,1147.9,271.5,1146.7,271.4z"/>
	<polygon class="st9" points="1052,288.6 1088.6,274.3 1052,288.6 	"/>
	<path class="st9" d="M1082.8,248.2c0.1,0.4,0.2,0.8,0.3,1.2C1083,248.9,1082.9,248.6,1082.8,248.2z"/>
	<path class="st9" d="M1080.4,256.1c0.1-0.1,0.3-0.2,0.4-0.3c-0.3,0.2-0.6,0.4-0.9,0.6C1080,256.3,1080.2,256.2,1080.4,256.1z"/>
	<path class="st9" d="M1060.6,269.6c4.4-4,8.3-8.7,11.4-13.7c-0.3-0.3-0.6-0.6-0.9-0.9c-2.1-2.6-2.1-6.3,0.1-8.8
		c2.2-2.5,5.8-3.1,8.7-1.4l27-22.5l3.1-2.6c-0.7-0.3-1.4-0.4-2.1-0.3l-2.5,0.3l-33.5,4c-6.9,0.8-13,4.7-16.6,10.6l-20.7,33.4
		l9.7,11.7C1050.3,277.2,1055.9,273.9,1060.6,269.6z"/>
	<path class="st9" d="M1101.6,261.1c0.2-0.4,0.3-0.8,0.4-1.2l6.5-20.9l-6.5,20.9C1101.9,260.3,1101.7,260.7,1101.6,261.1z"/>
	<path class="st10" d="M1112.8,224.7c0-0.2,0.1-0.4,0.1-0.5c0-0.2,0-0.4,0-0.5s0-0.4-0.1-0.5l-2.7,2.2l-27.4,22.8v0
		c0.1,0.4,0.2,0.8,0.3,1.2c0,0,0,0.1,0,0.1c0.1,0.4,0.1,0.7,0.1,1.1c0,0,0,0.1,0,0.1c0,0.4,0,0.7-0.1,1.1c0,0,0,0.1,0,0.1
		c-0.1,0.4-0.2,0.7-0.3,1c0,0,0,0,0,0.1c-0.1,0.3-0.3,0.7-0.5,1c0,0,0,0,0,0.1c-0.2,0.3-0.4,0.6-0.6,0.9c0,0,0,0.1-0.1,0.1
		c-0.2,0.3-0.5,0.5-0.8,0.8c0,0-0.1,0.1-0.1,0.1c-0.1,0.1-0.3,0.2-0.4,0.3c-0.2,0.1-0.3,0.2-0.5,0.3c0,0-0.1,0-0.1,0.1
		c-0.3,0.2-0.7,0.3-1,0.5c0,0-0.1,0-0.1,0c-0.3,0.1-0.7,0.2-1,0.3c0,0-0.1,0-0.1,0c-0.4,0.1-0.7,0.1-1.1,0.1c0,0-0.1,0-0.1,0
		c-0.4,0-0.7,0-1.1-0.1c0,0-0.1,0-0.1,0c-0.3-0.1-0.7-0.2-1-0.3c0,0-0.1,0-0.1,0c-0.3-0.1-0.5-0.2-0.8-0.4c-0.4-0.2-0.8-0.5-1.2-0.8
		c0,0,0,0,0,0c-3.2,5.1-7,9.7-11.4,13.7c-4.7,4.3-10.3,7.6-16.3,9.8l7.7,9.3l36.6-14.3c3.6-1.4,6.8-3.7,9.2-6.6c0.8-1,1.5-2,2.2-3.1
		c0.2-0.4,0.4-0.7,0.6-1.1c0.4-0.8,0.7-1.5,1-2.3c0.2-0.4,0.3-0.8,0.4-1.2l6.5-20.9l3.8-12.4l0.4-1.3
		C1112.8,225.1,1112.8,224.9,1112.8,224.7z"/>
	<path class="st11" d="M1044.3,279.3l-9.7-11.7l-2.9-3.5c-1.6-1.9-4.5-2.2-6.4-0.6l-7,5.8c-1.9,1.6-2.2,4.5-0.6,6.4l2.9,3.5
		l13.9-11.6l7.3,8.7l-13.9,11.6l13.1,15.7c1.6,1.9,4.5,2.2,6.4,0.6l7-5.8c1.9-1.6,2.2-4.5,0.6-6.4l-2.9-3.5v0L1044.3,279.3z"/>
	<polygon class="st1" points="1034.5,267.7 1020.6,279.3 1020.6,279.3 1027.8,288 1027.8,288 1041.8,276.4 	"/>
</g>
</svg>
